<?xml version="1.0" encoding="UTF-8"?>
<svg id="Layer_1" data-name="Layer 1" xmlns="http://www.w3.org/2000/svg" viewBox="0 0 621 1009.11">
  <path d="m621,838.17v170.83c-5.07.5-9.3-.73-13.58-3.99-28.08-21.38-56.38-42.46-84.65-63.58-28.62-21.39-57.32-42.67-85.91-64.09-29.95-22.45-59.76-45.08-89.71-67.51-27.36-20.49-54.88-40.75-82.24-61.24-47.68-35.71-95.24-71.59-142.93-107.28-40.59-30.37-81.31-60.57-121.97-90.85,0-29.64,0-59.27,0-88.91,2.43-1.6,4.96-3.08,7.29-4.82,35.08-26.27,70.07-52.67,105.21-78.86,33.13-24.69,66.45-49.13,99.63-73.75,33.96-25.2,67.87-50.47,101.75-75.76,20.34-15.19,40.58-30.52,60.92-45.72,19.53-14.6,39.13-29.11,58.71-43.66,22.11-16.42,44.25-32.8,66.32-49.26,20.03-14.94,40.01-29.95,59.99-44.95,16.12-12.1,32.25-24.19,48.26-36.43,3.22-2.46,5.96-5.54,8.92-8.34,1.33,0,2.67,0,4,0v170.83c-.86.35-1.84.54-2.56,1.08-13.69,10.1-27.33,20.25-41.01,30.36-41.47,30.65-82.98,61.25-124.4,91.96-30.49,22.6-60.83,45.41-91.33,68.01-27.62,20.47-55.37,40.77-83.02,61.19-27.98,20.66-55.92,41.38-83.87,62.08-8.6,6.37-17.18,12.75-25.93,19.23.82.87,1.3,1.55,1.94,2.02,20.06,14.75,40.16,29.45,60.21,44.21,35.64,26.25,71.25,52.53,106.88,78.79,35.64,26.28,71.31,52.53,106.91,78.86,24.82,18.35,49.5,36.88,74.35,55.2,23.34,17.21,46.81,34.26,70.24,51.36,10.52,7.68,21.08,15.32,31.61,22.99Z" style="fill: #FF6281;"/>
</svg>