<?xml version="1.0" encoding="UTF-8"?>
<svg id="Layer_1" data-name="Layer 1" xmlns="http://www.w3.org/2000/svg" viewBox="0 0 655.11 295.52">
  <path d="M455.6,0c-1.37,1.95-2.7,3.92-4.11,5.84-6.33,8.63-12.67,17.24-19.01,25.86-24.23,32.93-48.46,65.86-72.68,98.8-.23.31-.43.64-.75,1.12h138.7v32.41h-138.81c32.26,43.89,64.35,87.55,96.55,131.36-.58.03-.95.06-1.33.06-12.12,0-24.23,0-36.35.02-.86,0-1.36-.28-1.86-.96-18.92-25.78-37.86-51.55-56.8-77.32-6.76-9.2-13.49-18.43-20.3-27.59-3.67-4.94-7.5-9.75-11.32-14.7-1.85,2.52-3.73,5.08-5.61,7.64-1.23,1.67-2.46,3.35-3.69,5.02-26,35.2-52.01,70.4-77.95,105.64-1.25,1.7-2.46,2.33-4.57,2.31-11.47-.12-22.95-.06-34.43-.06h-1.58c32.23-43.85,64.31-87.5,96.55-131.36h-138.78c-.02-.51-.06-.89-.06-1.27,0-9.83,0-19.67,0-29.5,0-1.61.06-1.67,1.7-1.67,45.1,0,90.21,0,135.31,0h1.8c-.33-.49-.55-.84-.79-1.17-23.86-32.46-47.71-64.93-71.58-97.38-7.8-10.61-15.64-21.2-23.46-31.81-.3-.41-.52-.87-.77-1.31,85.33,0,170.66,0,255.99,0ZM393.24,32.47h-131.28c21.92,29.73,43.74,59.33,65.64,89.03,21.93-29.74,43.74-59.32,65.64-89.03Z" style="fill: #000; stroke-width: 0px;"/>
  <path d="M0,137.66c3.4-2.5,6.81-4.99,10.19-7.51,13.69-10.19,27.38-20.39,41.07-30.59,13.66-10.18,27.32-20.38,40.98-30.56,18.56-13.84,37.12-27.67,55.69-41.5.25-.19.52-.35.96-.65v1.42c0,12.55-.01,25.1.02,37.65,0,1.04-.33,1.65-1.16,2.27-17.74,13.13-35.46,26.29-53.2,39.43-17.71,13.13-35.44,26.24-53.16,39.36-.32.23-.61.5-1.05.86.59.48,1.08.91,1.6,1.3,19.8,14.61,39.61,29.22,59.41,43.83,15.48,11.42,30.96,22.84,46.45,34.25.77.57,1.11,1.17,1.11,2.17-.04,12.59-.02,25.18-.04,37.77,0,.51-.21,1.03-.33,1.54-.67-.15-1.48-.12-1.99-.49-5.49-4.04-10.93-8.15-16.39-12.24-18.36-13.75-36.72-27.51-55.07-41.26-16.12-12.08-32.25-24.16-48.38-36.23-8.59-6.43-17.19-12.84-25.79-19.25-.27-.2-.62-.31-.93-.46,0-7.03,0-14.07,0-21.1Z" style="fill: #000; stroke-width: 0px;"/>
  <path d="M506.39,268.55c-.03-.6-.06-.98-.06-1.37,0-12.63,0-25.26-.02-37.89,0-.85.27-1.38.96-1.88,23.39-17.31,46.77-34.64,70.16-51.97,12.05-8.93,24.11-17.85,36.16-26.77.32-.23.61-.49,1.08-.86-1.65-1.24-3.19-2.42-4.75-3.57-13.9-10.33-27.81-20.67-41.71-31-13.52-10.04-27.04-20.08-40.56-30.12-6.86-5.09-13.72-10.18-20.55-15.3-.4-.3-.74-.96-.75-1.46-.04-12.83-.03-25.66-.02-38.49,0-.36.21-1.03.3-1.03.88.02,1.95-.12,2.62.32,2.09,1.38,4.03,2.99,6.04,4.51,9.12,6.92,18.24,13.84,27.36,20.75,12.75,9.67,25.5,19.35,38.26,29.01,9.7,7.35,19.41,14.69,29.11,22.04,12.12,9.18,24.24,18.37,36.35,27.55,2.67,2.02,5.36,4.02,8,6.09.37.29.71.89.71,1.34.05,6.43.05,12.87,0,19.3,0,.49-.37,1.14-.77,1.44-18.6,13.81-37.22,27.58-55.85,41.36-16.45,12.17-32.91,24.32-49.37,36.49-13.86,10.25-27.72,20.5-41.59,30.75-.31.23-.63.43-1.11.76Z" style="fill: #000; stroke-width: 0px;"/>
</svg>