<?xml version="1.0" encoding="UTF-8"?>
<svg id="Layer_1" data-name="Layer 1" xmlns="http://www.w3.org/2000/svg" viewBox="0 0 732.91 134.98">
  <path d="M432.04,134.98H0C0,89.99,0,44.99,0,0c13,0,26,0,39,0-1.04.33-2.05.85-3.11.96C10.39,3.69-1.55,29.75,13.78,50.22c4.07,5.43,10.04,9.54,15.52,13.77,7.21,5.57,15.41,9.99,22.08,16.11,10.72,9.84,10.73,33.78-9.11,38.62-11.98,2.92-24.5-2.22-31.44-13.16-2.2-3.46-3.52-7.48-5.52-11.08-.67-1.2-2.22-1.9-3.37-2.83-.52.39-1.04.79-1.57,1.18.87,5.86,1.92,11.69,2.56,17.57.66,6.01,3.74,9.3,9.54,11.05,10.35,3.12,20.71,4.41,31.42,2.49,14.4-2.59,25.04-12.93,27.23-26.07,2.69-16.21-4.1-28.13-16.69-37.26-6.98-5.06-14.6-9.22-21.73-14.1-6.13-4.2-11.51-9.35-12.67-17.12C17.52,12.45,29.44,3.19,47.47,6.54c9.55,1.78,14.44,8.62,17.5,17.25.42,1.19,1.96,1.99,2.98,2.97.68-1.32,2.03-2.7,1.92-3.95-.45-5.28-1.1-10.58-2.23-15.74-.31-1.41-2.36-3.01-3.91-3.46C58.56,2.14,53.26,1.17,48,0c228.25,0,456.5,0,684.9,0v134.98h-289.87c2.74-1.14,5.48-2.28,8.23-3.42-2.96-1.51-5.43-1.63-7.82-2.13-13.63-2.86-23.35-11.66-31.8-21.89-12.71-15.39-20.85-33.44-28.52-51.67-.58-1.39-.01-3.83.91-5.19,5.7-8.38,11.58-16.63,17.54-24.82,5.92-8.15,10.26-18.02,21.51-20.48h-22.47c5.69,4.64,5.76,5.05,1.51,11.1-8.03,11.42-16.1,22.81-24.16,34.2-3.08,4.36-6.19,8.7-9.29,13.04-1-14.34-1-28.28-1-42.23,0-6.71-1.16-14.01,7.93-16.12h-32.02c8.07,2.17,8.62,8,8.57,14.89-.23,28.81-.13,57.62-.06,86.43.02,6.54.8,13.27-7.95,14.94h32.15c-8.28-4.35-8.6-4.87-8.61-14.23-.01-9.33.26-18.66-.11-27.97-.2-5.11,1.68-8.87,5.4-12.64.77,1.78,1.37,3.27,2.05,4.73,5.33,11.37,10.16,23.01,16.17,34.01,6.43,11.76,15.8,20.94,28.62,25.87,3.95,1.52,8.15,2.39,12.24,3.55ZM194.72,103.42c-6.1-2.84-6.02-7.34-6.08-11.81-.15-12.63-.38-25.25-.4-37.88,0-1.22.92-2.81,1.92-3.6,6.29-5.01,13.96-2,15.62,6.41,2.64,13.48,4.47,27.13,7.45,40.53,1.05,4.75,3.64,9.73,6.96,13.26,5.14,5.46,12.39,2.74,14.48-4.7-5.93.9-7.5-.09-9.15-5.9-.58-2.07-1.09-4.16-1.5-6.27-2.69-13.96-5.22-27.95-8.06-41.88-1.34-6.54-5.4-9.33-11.99-9.74-6.94-.44-12.59,1.9-16.92,7.65-3.53-5.57-7.93-8.51-13.76-7.49-5.15.91-10.12,2.78-15.17,4.23-.04-.36-.24-1.93-.43-3.52h-17.76c6.04,2.27,6.95,6.14,6.96,10.48,0,13.15.25,26.32-.15,39.46-.11,3.62-2.14,7.19-3.27,10.72h20.04c-4.78-3.67-5.45-4.92-5.48-11.03-.05-12.16.11-24.31-.1-36.46-.06-3.18,1.22-4.94,3.72-6.36,7.27-4.14,15.16.34,15.33,9,.21,10.82-.02,21.65.09,32.47.05,4.77.49,9.55-6.39,12.45h24.05ZM503.97,42.64c1.3,2.09,3.99,5.09,3.48,5.8-5.09,7.14-10.71,13.91-16.18,20.78-.46-.25-.92-.5-1.37-.75V13.18h-16.48c4.59,1.61,5.75,4.75,5.71,9.32-.18,22.48-.1,44.95-.07,67.43,0,5.02.84,10.26-5.68,13.29h22.91c-7.77-4.22-9.01-23.86-2.18-29.1,4.51,6.78,9.08,13.49,13.45,20.33,1,1.56,2.08,3.73,1.71,5.29-.31,1.34-2.63,2.2-4.4,3.53h26.19c-14.11-9.71-19.35-26.15-30.46-38.01,6.97-8.93,12.96-17.87,24.52-22.63h-21.16ZM730.04,103.24c-.95-3.53-2.61-7.05-2.73-10.62-.37-11.13-.03-22.29-.23-33.43-.15-8.53-4.91-14.37-13.22-16.33-10.49-2.47-20.23.21-29.88,4.58,1.07,4.55,2.07,8.8,3.07,13.04,2.2-11.28,8.32-15.55,19.74-13.49,7.35,1.32,10.96,10.05,8.55,21.12-13-3.71-24.78-2.83-32.58,10.07-3.38,5.59-2.49,15.01,2.51,19.93,9.33,9.19,19.86,6.71,30.27,1.81,1.29,4.13,6.23,5.03,14.5,3.31ZM107.78,43.57c6.77-1.99,8.68-.84,10.84,6.5.05.16.14.31.16.47,2.03,13.88,2.54,27.76-.83,41.49-1.62,6.61-5.54,8.86-12.29,7.89-6.78-.97-10.52-4.71-10.65-10.97-.2-9.98-.28-19.96-.36-29.94-.05-5.58,0-11.15,0-16.92h-16.24c4.65,2.16,5.61,5.75,5.6,9.87-.02,10.49-.18,20.98.06,31.46.16,7.18,1.94,13.96,8.74,17.91,9.85,5.72,23.59,2.99,30.55-5.97,8.37-10.79,8.64-23.32,7.12-36.05-.77-6.48-2.66-12.64-7.91-17.21-5.15-4.49-10.19-4.03-14.79,1.47ZM411.09,42.1c5.24,2.39,5.79,6.24,5.82,10.29.07,10.83-.19,21.66.19,32.48.25,7.04,2.46,13.55,9.44,16.92,13,6.27,27.8.5,33.66-12.76,3.89-8.8,4.6-18.06,3.6-27.35-.72-6.7-2.1-13.49-7.28-18.65-5.43-5.42-10.87-5.26-16,.61,7.24-2.04,9.42-1.13,10.96,6.74,2.71,13.81,2.66,27.77-.58,41.53-1.54,6.56-5.11,8.65-11.72,8.06-6.73-.6-10.89-4.16-11.12-10.43-.5-13.97-.64-27.94-.91-41.92-.03-1.76,0-3.53,0-5.51h-16.07ZM637.11,81.01c-.42.04-.84.09-1.26.13-1.26,2.8-2.27,5.75-3.82,8.38-5.93,10.06-18.13,11.47-25.94,2.78-2.59-2.88-4.14-6.71-6.09-10.15-1.83-3.23-.69-4.85,2.72-6.2,9.84-3.9,19.53-8.16,29.25-12.34,2.63-1.13,5.16-2.18,3.55-6.18-7.06-17.53-27.03-19.32-38.11-11.31-16.41,11.86-17.2,34.84-4.83,48.78,13.56,15.29,38.57,10.42,44.75-8.63.51-1.57-.13-3.51-.23-5.27ZM657.54,42.11c.78,2.65,2.25,5.39,2.3,8.15.25,16.99.35,33.98.12,50.97-.06,4.74-1.09,9.55-2.26,14.17-1.22,4.81-5.02,6.82-9.8,6.85-4.97.02-8.13-2.58-9.37-7.33-.49-1.9-.51-3.92-.86-6.9-1.35,4.63-2.59,8.32-3.43,12.11-.2.9.61,2.6,1.44,3.08,7.67,4.35,20.72,5.03,27.81-4.68,5.24-7.17,7.38-15.24,7.49-23.78.19-15.48-.12-30.97-.29-46.45-.02-2.06-.48-4.11-.74-6.17h-12.38ZM538.37,42.13c6.5,2.28,6.65,7.59,6.6,13.21-.12,11.99-.08,23.98-.02,35.97.02,4.54-.48,8.77-5.29,11.5h19.26c-1.19-3.01-3.27-6.2-3.59-9.54-.6-6.27-.46-12.66-.09-18.96.39-6.53,1.73-12.9,7.29-17.35,5.8-4.64,10.88-3.84,15.16,2.1-1.18-6-2.37-11.99-3.58-18.13-9.6,2.71-14.22,9.8-18.17,17.6-.37-.2-.73-.4-1.1-.6v-15.78h-16.47ZM262.74,41.77c.07.66.15,1.32.22,1.98,2.6.14,5.2.29,8.43.47,0,2.37-.02,4.48,0,6.59.18,14.47.19,28.94.64,43.39.16,5.09,3.85,8.39,8.46,8.85,7.07.71,11.96-1.67,13.95-6.8-8.31,3.51-12.05,1.02-12.42-8.31-.03-.83-.01-1.66-.01-2.5,0-11.98,0-23.97,0-35.95v-5.98h17.02c.02-.6.03-1.21.05-1.81h-17.22v-15.46c-5.5,7.65-9.31,15.27-19.11,15.54ZM250.66,42.18h-17.14c6,2.02,6.6,5.65,6.57,9.88-.12,13.5.19,27-.21,40.48-.11,3.57-2.18,7.08-3.24,10.32h19.16c-5.23-1.93-5.16-6.32-5.15-10.7.02-5.5,0-11,0-16.5,0-10.97,0-21.94,0-33.48ZM664.57,18.01c-3.94,0-6.97,2.9-7.07,6.8-.11,4.18,2.98,7.29,7.14,7.19,4.03-.09,6.77-2.95,6.7-6.98-.07-4.19-2.78-6.99-6.77-7ZM244.68,18.89c-4.23.06-7.25,2.79-7.14,6.47.11,3.64,3.55,7.13,6.99,7.08,3.8-.06,7.26-3.19,7.33-6.65.08-4.04-2.95-6.96-7.17-6.9Z" style="fill: #fff; stroke-width: 0px;"/>
  <path d="M432.04,134.98c-4.09-1.17-8.29-2.03-12.24-3.55-12.82-4.93-22.19-14.11-28.62-25.87-6.01-11-10.83-22.64-16.17-34.01-.68-1.46-1.28-2.95-2.05-4.73-3.72,3.77-5.61,7.52-5.4,12.64.37,9.31.1,18.65.11,27.97.01,9.36.32,9.89,8.61,14.23h-32.15c8.75-1.67,7.97-8.41,7.95-14.94-.07-28.81-.16-57.62.06-86.43.05-6.89-.5-12.73-8.57-14.89h32.02c-9.09,2.11-7.92,9.4-7.93,16.12,0,13.94,0,27.89,1,42.23,3.1-4.35,6.21-8.69,9.29-13.04,8.06-11.39,16.13-22.78,24.16-34.2,4.25-6.05,4.18-6.46-1.51-11.1h22.47c-11.25,2.46-15.59,12.32-21.51,20.48-5.96,8.2-11.84,16.45-17.54,24.82-.92,1.35-1.49,3.8-.91,5.19,7.67,18.23,15.81,36.27,28.52,51.67,8.45,10.23,18.17,19.03,31.8,21.89,2.39.5,4.87.62,7.82,2.13-2.74,1.14-5.48,2.28-8.23,3.42h-11Z" style="stroke-width: 0px;"/>
  <path d="M48,0c5.25,1.17,10.56,2.14,15.72,3.61,1.56.44,3.61,2.05,3.91,3.46,1.13,5.17,1.77,10.46,2.23,15.74.11,1.25-1.24,2.63-1.92,3.95-1.02-.98-2.56-1.78-2.98-2.97-3.06-8.63-7.95-15.48-17.5-17.25-18.02-3.35-29.94,5.91-27.42,22.84,1.16,7.78,6.54,12.93,12.67,17.12,7.12,4.88,14.75,9.04,21.73,14.1,12.59,9.13,19.38,21.05,16.69,37.26-2.19,13.14-12.82,23.48-27.23,26.07-10.71,1.93-21.07.64-31.42-2.49-5.81-1.75-8.88-5.04-9.54-11.05-.64-5.88-1.69-11.72-2.56-17.57.52-.39,1.04-.79,1.57-1.18,1.15.93,2.7,1.64,3.37,2.83,2.01,3.6,3.32,7.62,5.52,11.08,6.95,10.94,19.47,16.08,31.44,13.16,19.83-4.84,19.83-28.78,9.11-38.62-6.67-6.12-14.86-10.54-22.08-16.11-5.48-4.23-11.45-8.34-15.52-13.77C-1.55,29.75,10.39,3.69,35.89.96c1.06-.11,2.08-.63,3.11-.96,3,0,6,0,9,0Z" style="stroke-width: 0px;"/>
  <path d="M194.72,103.42h-24.05c6.88-2.9,6.44-7.68,6.39-12.45-.11-10.82.12-21.65-.09-32.47-.17-8.66-8.06-13.14-15.33-9-2.49,1.42-3.77,3.19-3.72,6.36.21,12.15.05,24.31.1,36.46.02,6.11.69,7.36,5.48,11.03h-20.04c1.13-3.53,3.16-7.09,3.27-10.72.4-13.14.16-26.3.15-39.46,0-4.34-.92-8.2-6.96-10.48h17.76c.19,1.58.38,3.16.43,3.52,5.05-1.45,10.03-3.33,15.17-4.23,5.83-1.03,10.22,1.92,13.76,7.49,4.33-5.75,9.97-8.09,16.92-7.65,6.6.42,10.66,3.2,11.99,9.74,2.85,13.93,5.37,27.92,8.06,41.88.41,2.11.91,4.2,1.5,6.27,1.65,5.82,3.22,6.81,9.15,5.9-2.09,7.44-9.34,10.17-14.48,4.7-3.32-3.53-5.91-8.52-6.96-13.26-2.97-13.4-4.8-27.05-7.45-40.53-1.65-8.41-9.32-11.42-15.62-6.41-.99.79-1.92,2.38-1.92,3.6.02,12.63.25,25.25.4,37.88.05,4.47-.02,8.98,6.08,11.81Z" style="stroke-width: 0px;"/>
  <path d="M503.97,42.64h21.16c-11.56,4.76-17.55,13.7-24.52,22.63,11.11,11.86,16.35,28.3,30.46,38.01h-26.19c1.76-1.32,4.09-2.19,4.4-3.53.36-1.56-.72-3.73-1.71-5.29-4.37-6.84-8.94-13.55-13.45-20.33-6.83,5.24-5.59,24.88,2.18,29.1h-22.91c6.52-3.04,5.69-8.27,5.68-13.29-.03-22.48-.11-44.96.07-67.43.04-4.56-1.12-7.7-5.71-9.32h16.48v55.29c.46.25.92.5,1.37.75,5.47-6.87,11.09-13.64,16.18-20.78.51-.72-2.18-3.72-3.48-5.8Z" style="stroke-width: 0px;"/>
  <path d="M730.04,103.24c-8.27,1.72-13.21.82-14.5-3.31-10.42,4.9-20.95,7.38-30.27-1.81-4.99-4.92-5.89-14.34-2.51-19.93,7.8-12.9,19.59-13.78,32.58-10.07,2.41-11.07-1.21-19.8-8.55-21.12-11.42-2.05-17.54,2.21-19.74,13.49-1-4.25-2-8.49-3.07-13.04,9.65-4.37,19.39-7.05,29.88-4.58,8.32,1.96,13.08,7.79,13.22,16.33.19,11.14-.15,22.3.23,33.43.12,3.57,1.78,7.09,2.73,10.62ZM716.06,83.19c0-2.82.2-5.67-.1-8.46-.13-1.19-1.04-2.86-2.04-3.3-5.89-2.59-13.26-1.08-16.94,3.16-4.46,5.14-5.15,13.23-1.61,19.03,3.01,4.95,7.34,6.79,12.55,5.34,6.52-1.81,8.14-3.96,8.14-10.8,0-1.66,0-3.32,0-4.98Z" style="stroke-width: 0px;"/>
  <path d="M107.78,43.57c4.6-5.51,9.64-5.96,14.79-1.47,5.24,4.57,7.13,10.72,7.91,17.21,1.52,12.74,1.25,25.26-7.12,36.05-6.95,8.96-20.69,11.69-30.55,5.97-6.8-3.94-8.57-10.72-8.74-17.91-.24-10.48-.08-20.97-.06-31.46,0-4.12-.96-7.71-5.6-9.87h16.24c0,5.76-.04,11.34,0,16.92.09,9.98.16,19.96.36,29.94.13,6.26,3.86,10,10.65,10.97,6.74.96,10.66-1.29,12.29-7.89,3.37-13.73,2.86-27.61.83-41.49-.02-.16-.12-.31-.16-.47-2.16-7.34-4.07-8.49-10.84-6.5Z" style="stroke-width: 0px;"/>
  <path d="M411.09,42.1h16.07c0,1.98-.03,3.75,0,5.51.28,13.97.42,27.95.91,41.92.22,6.27,4.39,9.83,11.12,10.43,6.62.59,10.18-1.5,11.72-8.06,3.23-13.75,3.29-27.71.58-41.53-1.54-7.87-3.72-8.77-10.96-6.74,5.13-5.87,10.57-6.03,16-.61,5.18,5.17,6.56,11.95,7.28,18.65,1,9.29.28,18.55-3.6,27.35-5.86,13.26-20.65,19.03-33.66,12.76-6.98-3.37-9.19-9.89-9.44-16.92-.38-10.82-.12-21.65-.19-32.48-.03-4.04-.58-7.9-5.82-10.29Z" style="stroke-width: 0px;"/>
  <path d="M637.11,81.01c.11,1.77.74,3.71.23,5.27-6.18,19.05-31.19,23.92-44.75,8.63-12.37-13.95-11.58-36.92,4.83-48.78,11.08-8.01,31.05-6.22,38.11,11.31,1.61,3.99-.92,5.04-3.55,6.18-9.72,4.18-19.41,8.44-29.25,12.34-3.41,1.35-4.55,2.97-2.72,6.2,1.95,3.44,3.5,7.27,6.09,10.15,7.81,8.69,20.01,7.28,25.94-2.78,1.55-2.63,2.56-5.58,3.82-8.38.42-.04.84-.09,1.26-.13ZM596.32,73.68l2.07.73c6.49-3.11,13.02-6.14,19.47-9.34,6.95-3.44,7.24-4.6,3.32-11.24-.59-.99-1.2-1.99-1.93-2.88-3.46-4.23-8.01-5.74-13.27-4.78-4.85.89-9.43,5.45-9.83,10.59-.43,5.6.07,11.28.16,16.92Z" style="stroke-width: 0px;"/>
  <path d="M657.54,42.11h12.38c.26,2.06.72,4.12.74,6.17.18,15.48.48,30.97.29,46.45-.11,8.55-2.25,16.61-7.49,23.78-7.09,9.71-20.14,9.03-27.81,4.68-.83-.47-1.64-2.17-1.44-3.08.84-3.78,2.08-7.48,3.43-12.11.35,2.98.36,5,.86,6.9,1.24,4.75,4.4,7.35,9.37,7.33,4.78-.02,8.58-2.04,9.8-6.85,1.17-4.63,2.2-9.43,2.26-14.17.23-16.99.14-33.98-.12-50.97-.04-2.76-1.51-5.5-2.3-8.15Z" style="stroke-width: 0px;"/>
  <path d="M538.37,42.13h16.47v15.78c.37.2.73.4,1.1.6,3.96-7.8,8.58-14.88,18.17-17.6,1.21,6.14,2.4,12.13,3.58,18.13-4.28-5.94-9.36-6.74-15.16-2.1-5.56,4.45-6.9,10.82-7.29,17.35-.37,6.31-.51,12.69.09,18.96.32,3.35,2.4,6.53,3.59,9.54h-19.26c4.81-2.72,5.31-6.96,5.29-11.5-.06-11.99-.11-23.98.02-35.97.06-5.62-.1-10.93-6.6-13.21Z" style="stroke-width: 0px;"/>
  <path d="M262.74,41.77c9.8-.27,13.61-7.88,19.11-15.54v15.46h17.22c-.02.6-.03,1.21-.05,1.81h-17.02v5.98c0,11.98,0,23.97,0,35.95,0,.83-.02,1.67.01,2.5.37,9.33,4.1,11.83,12.42,8.31-1.98,5.13-6.87,7.51-13.95,6.8-4.61-.46-8.3-3.76-8.46-8.85-.45-14.46-.47-28.93-.64-43.39-.03-2.11,0-4.22,0-6.59-3.23-.18-5.83-.32-8.43-.47-.07-.66-.15-1.32-.22-1.98Z" style="stroke-width: 0px;"/>
  <path d="M250.66,42.18c0,11.55,0,22.51,0,33.48,0,5.5.01,11,0,16.5-.01,4.38-.08,8.77,5.15,10.7h-19.16c1.07-3.23,3.14-6.75,3.24-10.32.4-13.48.08-26.99.21-40.48.04-4.23-.56-7.86-6.57-9.88h17.14Z" style="stroke-width: 0px;"/>
  <path d="M664.57,18.01c3.99,0,6.7,2.81,6.77,7,.07,4.03-2.68,6.89-6.7,6.98-4.16.1-7.25-3.01-7.14-7.19.1-3.89,3.13-6.8,7.07-6.8Z" style="stroke-width: 0px;"/>
  <path d="M244.68,18.89c4.22-.06,7.26,2.86,7.17,6.9-.07,3.45-3.53,6.59-7.33,6.65-3.43.05-6.88-3.44-6.99-7.08-.11-3.68,2.92-6.41,7.14-6.47Z" style="stroke-width: 0px;"/>
  <path d="M716.06,83.19c0,1.66,0,3.32,0,4.98,0,6.84-1.62,8.99-8.14,10.8-5.21,1.45-9.54-.39-12.55-5.34-3.53-5.8-2.85-13.89,1.61-19.03,3.68-4.24,11.05-5.75,16.94-3.16,1,.44,1.92,2.11,2.04,3.3.3,2.79.1,5.63.1,8.46Z" style="fill: #fff; stroke-width: 0px;"/>
  <path d="M596.32,73.68c-.09-5.64-.59-11.32-.16-16.92.39-5.15,4.98-9.71,9.83-10.59,5.27-.96,9.81.55,13.27,4.78.73.89,1.35,1.89,1.93,2.88,3.92,6.64,3.62,7.8-3.32,11.24-6.45,3.2-12.98,6.23-19.47,9.34l-2.07-.73Z" style="fill: #fff; stroke-width: 0px;"/>
</svg>