<?xml version="1.0" encoding="UTF-8"?><svg id="a" xmlns="http://www.w3.org/2000/svg" viewBox="0 0 707.14 724.94"><defs><style>.b{fill:#050404;stroke-width:0px;}</style></defs><path class="b" d="M1,683.91c4.89-5.25,11.64-3.79,17.59-4.41,16.54-1.74,33.12-3.29,49.78-3.66,9.13-.2,9.5-1.23,12.63-9.75,3.74-10.15,5.03-20.55,4.99-31.08-.07-17.88,3.36-35.61,2.53-53.42-.38-8.21,4.14-14.06,6.17-21.04.53-1.84,2.19-2.92,4.24-3.8,5.01-2.16,10.66-4.07,14.33-7.78,3.56-3.6,7.6-7.36,9.6-12.48,1.67-4.29,4.02-8.33,5.54-12.66,2.43-6.92,6.54-12.58,11.61-17.73,1.24-1.25,2.59-1.88,4.22-2.4,7.54-2.42,9.04-5.54,6.43-12.89-.26-.74-.96-1.38-.55-2.21,8.21,1.61,18.46-.2,20.16,12.98.55-4.24,5.95.73,5.74-3.71.83,1.11.83,1.13,4.2.14,10.79-3.18,21.71-6.01,32.34-9.66,11.17-3.83,21.88-2.5,32.6,1.26,5.36,1.88,10.98,2.27,16.51,3.2,8.79,1.48,16.36-1.86,22.45-7.35,10.55-9.51,22.52-15.69,36.19-18.98.79-.19,2.02-.18,2.54-1.77-13.7-.03-27.21.39-40.69,1.48-13.4,1.08-26.74,3.13-40.26,2.32,26.9-4.07,54.04-4.72,81.61-5.7-3.84-5.25-7.49-10.26-13.14-13.37-9.93-5.47-17.8-13.91-27.95-19.11-12.51-6.41-26.18-9.33-39.42-13.5-9.88-3.12-19.98-5.55-29.95-8.73,10.91,1.46,21.88-.16,33.23,0-.88,2.78-3.14,1.98-3.81,3.88,3.83.25,6.95-3.32,11.19-1.45.14.2-1.5,1.48.39,1.9,1.83.29,2.88-1.73,5.15-2.06-1.25,4.77,1.63,3.5,5.21,2.35-2.35,2.53-5.2,2.95-5.75,6.15,3.59-3.13,7.9-1.77,12.15-2.71-1.61,3.16-5.34,1.99-7.72,4.11,4.57,1.94,9.48-3,13.28,1.42.64.79,1.13,1.91,2.57,1.27-.04-1.21-.74-1.85-1.47-2.46-10.9-17.52-22.33-34.63-38.93-47.43-9.11-7.02-19.54-11.95-29.33-17.89-4.63-2.81-9.32-5.59-13.52-9.88,17.44,3.26,32.1,10.45,44.22,22.85,8.81,9,18.11,17.52,26.97,26.04-.11-4.59-3.78-8.39-6.52-12.26-12.9-18.24-31.9-29.09-50.29-40.63-1.33-.84-3.07-1.13-4.04-2.85,12.64,4.39,23.58,11.35,33.96,19.3,1.18.9,2.42,1.71,3.64,2.56.37.11.75.23,1.12.34-.03-.4-.05-.8-.08-1.2-1.78-6.31-6.95-11.2-8.15-18.23,3.62-.44,5.45,1.24,7.1,3.43,6.12,8.11,12.16,16.25,15,26.23.31,1.1.94,2.12,1.5,3.13.1.18.6.15,1.44.33.46-5.95-1.62-10.93-4.58-15.78-5.09-8.34-10.25-16.67-12.41-26.39-.21-.96-.25-1.95-.39-3.09,4.07,3.37,1.9,9.56,6.41,12.96,2.78-5.17.72-10.56,1.87-15.64.91,8.44.24,17.1,3.16,25.91.77-.96,1.28-1.3,1.28-1.63.09-11.46.47-22.94-2.96-34.09-7.76-25.2-19.39-48.67-31.86-71.78-1.78-3.29-3.63-3.79-5.99-1.08-6.25,7.16-14.41,11.65-22.32,16.57-8.3,5.16-11.81,13.83-14.5,22.59-2.38,7.72-5.8,14.56-10.47,21.22-5.47,7.81-6.07,16.9-1.88,25.86.51,1.08.87,1.96.5,3.26-1.06,3.77-1.87,7.6-3.02,12.38-.54-2.35.67-3.77-.92-5.51-4.13,4.25-8.59,8.26-9.92,14.25-1.06,4.77,2.44,7.71,5.93,10.07,6.23,4.22,11.41,9.17,13.38,16.74.16.61.16,1.26.38,3.17-3.74-5.02-5.95-9.86-10.46-12.86-5.91,15.35-1.23,65.33,5.94,64.66.59,10.32,9.13,17.7,9.85,27.8,2.15.25,1.2-1.41,1.84-1.95,3.25,2.23-.24,6.27,2.47,8.43-.82,1.69-1.76.3-2.82.58,1.38,4.45-2.16,9.55,2.22,14.55.64-4.7,1.17-8.62,1.7-12.55,1.36,4.04-1.25,8.12,1.37,12.81,2.68-4.38,2.48-9.17,4.38-14.4.62,5.92-1.78,10.4-1.74,15.73-10.89-1.1-21.54-2.17-32.26-3.25,0-3.22,3-4.84,3.6-7.58.72-.53.86-1.19.44-1.98-.46.3-.93.59-1.39.89-1.98,1.47-3.97,2.95-6.12,4.54.08-5.53,6.7-7.13,7.11-12.13.39-4.72-.75-9.57,1.28-14,1.45,7.24,1.08,15.22,7.09,21.37-.88-5.36-1.76-10.71-2.65-16.07-.05-.33-.25-.64-.25-.96-.08-10.88-5.2-20.76-6.48-31.23-1.17-9.58-2.25-19.44-1.03-29.26,1.39-11.2-.51-21.83-5.1-32.25-2.18-4.97-1.07-10.92.26-16.12,2.36-9.2,2.7-18.74,5.36-27.87,2.44-8.34,3.81-16.98,9.99-23.85,3.11-3.45,4.91-7.95,5.95-12.49,3.36-14.64,10.07-26.62,24.56-33,5.41-2.38,9.83-6.16,13.46-10.87,2.66-3.45,6.05-5,10.49-3.67,4.02,1.21,7.57-.65,10.87-2.44,4.96-2.69,9.78-5.66,15.02-7.81,5.1-2.09,7.8-6.66,10.69-10.85,5.3-7.69,11.47-13.49,21.43-14.6,5.56-.62,9.91-4.49,13.81-8.45,1.85-1.88,2.84-3.87,1.19-6.66-1.28-2.17-1.47-5-.46-7.27,2.29-5.16,1.17-10.19-.13-15.15-2.33-8.86-3.09-17.94-4.23-26.96-1.05-8.33,2.87-12.8,10.78-11.63-1.33-12.93-1.02-25.85-10.59-36.4-5.11-5.62-6.78-12.66-3.49-19.95,1.53-3.38-.15-6.23-.59-9.21-.65-4.42.15-7.87,2.93-11.53,4.55-5.98,9.79-10.85,16.78-13.61,2.06-.81,2.74-2.29,3.29-4.03,1.89-6.02,5.79-10.59,11.83-11.79,14.53-2.89,27.64-11.14,42.33-12.31,11.98-.95,23.35-5.33,35.43-4.99,15.15.42,40.76,14.06,45.18,36.99.49,2.55.36,4.91-.55,7.6,5.88,2.54,11.6,4.67,16.28,8.86,8.53,7.64,11.51,16.56,7,27.32-5.26,12.57-9.11,25.58-12.75,38.68-1.03,3.7-1,6.4,2.71,8.92,5.12,3.49,6.81,9.07,5.8,15.01-1.46,8.62-2.14,17.43-5.69,25.64-1.59,3.67-1.66,7.68-1.11,11.73,1.38,10.23-3.54,14.07-13.65,10.27-1.53,3.18-2.96,6.47-4.68,9.62-.93,1.7-.18,3,.64,4.11,4.56,6.14,9.25,12.19,13.91,18.25,1.54,2,3.9,2.56,6.13,3.07,4.46,1.03,8.06,3.24,10.19,7.3,2.16,4.12,6.2,4.89,10,5.72,5.85,1.28,10.38,3.91,13.38,9.32,2.35,4.25,6.84,6.29,10.83,8.59,16.73,9.63,28.39,23.34,34.02,41.88,1.64,5.4,4.61,9.68,8.1,14.04,7.03,8.77,13.57,17.74,22.36,25.12,7.3,6.13,8.17,16,9.49,25.04.44,2.99,1.49,5.27,3.74,7.26,8.4,7.47,14.93,16.56,21.29,25.7,5.62,8.06,5.54,17.9,7.13,27.17,1.14,6.62,1.24,13.11-.75,19.68-.78,2.59-.07,5.62-.08,8.45,0,1.65.57,3.83-.25,4.86-6.01,7.52.26,13.04,2.78,19.18.75,1.82,2.37,2.64,3.99,3.57,6.39,3.67,12.29,7.9,16.33,14.29,1.9,3.01,4.59,5.26,7.7,6.96,7.77,4.24,14.01,10.38,19.04,17.38,6.95,9.67,7.35,21.4,6.15,32.56-1.82,16.82-6.52,32.92-18.24,46.01-3.04,3.39-2.8,6.44.85,9.34,4.31,3.42,8.18,7.28,11.85,11.4,6.85,7.69,8.91,16.65,7.2,26.46-.86,4.91.24,8.02,5.12,9.51.79.24,1.51.7,2.26,1.06,8.17,3.95,11.73,4.71,21.35,4.54,6.36-.11,14.15,9.26,12.76,15.34-.64,2.79-3.15,2.88-5.13,3.04-15.58,1.27-31.17,2.39-46.76,3.52-22.9,1.65-45.78,3.6-68.71,4.78-18.29.94-36.35,3.69-54.51,5.6-9.75,1.03-18.75,5.36-28.57,6.42-14.23,1.54-28.53,2.02-42.78,3.11-19.07,1.45-38.17,2.6-57.26,3.84-16.77,1.09-33.53,2.24-50.3,3.16-14.13.78-28.28,1.26-42.42,1.88-4.81.21-8.95,2.28-13.02,4.63-10.52,6.08-21.53,10.94-34.02,9.13-37.67-5.45-75.71-4.3-113.55-6.64-15.28-.95-30.61-1.65-45.95-1.08-8.01.3-15.84,1.86-23.44,4.33-3.97,1.29-7.83,1.37-11.74.29-22.38-6.17-42.33-17.29-61.57-29.95-2.71-1.78-3.38-5.16-6.24-6.59v-1ZM407.25,42.53c.18-.43,1.12-.62.38-1.34-.83-.8-.77.38-1.18.5,2.49-2.14-.52-2.76-1.25-3.41-5.15-4.53-11.17-7.71-17.38-10.54-9.99-4.55-20.56-2.37-30.92-2.67,12-.29,23.93-5.72,35.43-.64-1.1-1.34-3.24-1.82-5.23-2.66-8.44-3.56-16.99-2.55-25.8-1.76-14.64,1.32-27.76,5.89-39.27,15.02-.61.49-2.02.75-1,2.09-1.99-1.33-1.72.39-1.98,1.46,1.15.03,1.67-.62,1.9-1.6,1.76-.98,3.25-.84,4.27,1.42-1.1-2.36-1.24-3.81,1.78-3.5.3.49.59.98.89,1.47.34-.49,1.81-.2,1.02-1.48,1.06.49,1.77.24,2.01-.97,2.19.62,3.53-1.27,5.31-1.85,3.99-1.3,7.46-4.1,11.9-4.15-.71.56-1.43,1.12-2.7,2.12,1.25-.07,1.85.02,2.37-.15,12.03-3.93,24.14-2.94,36.2-.33,3.77.82,7.54,2.16,9.99,5.59-10.51-3.09-21.25-3.66-31.99-1.99-9.34,1.45-18.55,3.66-26.62,9.01-5.79,3.84-8.98,9.32-9.95,16.31,7.42-10.99,19.4-13.79,30.76-17.67.11-.04.27.04.4.06-.03.08-.06.17-.11.31-5.31-1.17-10.04,1.48-15.05,2.33-.47-.38-.94-.76-1.42-1.14,8.49-4.7,17.73-5.91,27.28-6.52,14.59-.92,28.14,1.22,40.05,10.33.7.54,1.38,2.19,2.74.75-.42.39-.44.77.06,1.09.1.06.43-.02.46-.11.19-.56-.14-.8-.64-.9-.7-2.85-4.78-2.85-5.08-6.03.89-.71,1.3-.15,1.67.56.62.06.98.31.75,1,.08.02.16.04.23.06-.09-.02-.19-.03-.26-.06ZM424.11,45.44c.29-.29.57-.59.86-.88-.19-.13-.38-.27-.58-.4-.08.43-.16.87-.25,1.3.77.04,1.54.08,2.3.11.2.89.4,1.78.58,2.66l.05-.24s-.19.15-.19.15c-.19-.82-.38-1.65-.61-2.44-.73-.09-1.46-.18-2.17-.27ZM343.83,76.86c-.67-.07-.99.29-1.1.91-1.58.33-3.02,1.01-4.05,2.25-1.74,2.1.62,1.47,1.36,1.91.04,2.7-5.86,1.3-4.04,5.28,3.26.64,4.76-3.73,8.06-2.2-.82,2.22-2.82,2.75-4.78,2.96-4.25.45-4.79,3.09-4.6,6.66.15,2.91,1.99,4.51,4.51,6.26-3.03.27-5.37.24-7.56-.57-2.01-.74-3.26-.18-4.79,1.25-7.54,7.04-12.55,16.01-19.19,23.76,2.23,1.49,3.85,2.32,5.5-.06,1.65-2.38,4.31-3.55,6.79-4.9,8.05-4.37,16.57-1.5,24.9-1.73,4.83-.13,8.65,1.91,12.11,4.92,2.99,2.6,6.22,4.96,8.43,8.19,6.26-1.3,12.39-.99,18.52-.17,13.61-17,39.1-19.23,54.25-4.24,1.05-2.07,3.52-.77,5.42-1.95-4.67-4.53-6.33-8.18-8.08-17.33,1.44-.2,1.77,1.34,2.8,1.79.54.71.42,1.97,1.82,2.08.76-1.33.31-2.4-.73-3.36-.26-3.17-4.22-4.05-4.36-7.51-.21-4.95-1.79-9.95-1.31-14.78.47-4.73-4.08-3.86-5.41-6.42-.58-1.11-2.75.07-4.07.5-5.5,1.81-5.48,1.87-11.86-.49,7.13.79,11.53-2.91,15.84-6.73,1.16-1.03,2.86-2.04,1.44-4.06.18.33.37.66.02.03.53.5.25.24-.02-.02-6.13,6.8-10.04,8.69-15.87,7.12,4.69-.45,7.56-2.77,10.25-5.63-14.35-7.03-28.26-6.59-41.99,1.01-2.03,1.12-4.01,2.45-6.18,3.17-2.1.7-.69-.97-.76-1.63,1.19-.58,2.37-1.17,3.5-1.76-.13-.36-.26-.72-.39-1.09-.13.09-.26.18-.39.27.32.27.63.54.95.81-2.05-2.28-2.93.64-4.39.99-.99.4-1.97.8-3.21,1.31v-2.44c2.74-1.51,5.47-3.03,8.21-4.54-3.6,0-6.46,1.44-9.01,3.55-1.44,1.09-3.11,1.98-4.29,3.31-5.02,5.62-9.73,11.48-8.98,19.7.6,6.57,5.85,9.51,10.79,5.98.07.74.34,1.45.16,2.01-1.52,4.85-6.86,5.81-10.91,1.15-4.28-4.93-10.06-9.04-11.31-16.15-.21-1.17-1.08-1.02-1.87-1.13-1.49-.92,1.4-4.06-2.03-4-.68-1.66,1.36-1.57,1.68-2.59.32-.34.64-.68.95-1.02.02-.44.22-1.15.04-1.26-.59-.38-.63.26-.77.64ZM396.71,126.74c-.37.31-.73.62-1.1.92-3.03,2.6-7.5,4.1-7.52,9.09-.06,11.53,8.07,22.06,19.19,25.03,10.26,2.74,21-2.22,25-11.28,1.58-3.59,1.98-7.42,2.07-11.07.34-14.63-6.99-19.21-20.4-16.87-3.95.69-8.24,1.06-12.14,2.53.31-.61.62-1.22.93-1.85-1.61-.65-2.61.12-3.52,1.14-.49.47-.98.93-1.47,1.4-.35.32-.7.64-1.04.96ZM596.44,615.52c.33-.31.67-.62,1-.93.33-.34.67-.67,1-1.01.33-.32.67-.65,1-.97,3.93-3.02,6.55-7.29,10.47-11.94-.84,2.91-1.31,4.54-1.93,6.68,3.77-2.85,4.19-7.12,6.75-10.48.14,1.6.25,2.77.39,4.43,3.73-3.58,5.64-7.79,8.49-11.89.34,3.18-2.51,5.42-1.06,8.82,2.72-3.88,3.73-8.3,7.96-12.26-1.44,4.69-4.42,7.47-3.31,11.69,3.28-2.87,3.82-7.55,7.59-10.33.34,2.7-1.53,3.58-1.97,5.17-.42,1.52-2.14,2.62-1.54,4.59,2.88-.67,2.46-4.99,5.74-5.1l-.12-.07c.26,1.9-2.04,3.54-.34,5.9,1.32-2.22,2.55-4.29,3.77-6.35,1.01.53-.04,2.18,1.97,2.32,12.7-15.68,18.14-33.82,16.31-54-.54-5.99-.6-12.43-4.56-17.61-6.87-8.98-15.33-16.29-25.49-21.12-4.8-2.29-10.12-6-15.88-2.74-5.76,3.26-11.81,4.14-18.23,4.01-3.31-.07-6.72-.24-9.94.37-23.77,4.48-47,10.98-69.81,18.99-3.11,1.09-6.21,2.46-8.96,4.23-4.76,3.08-8.65,7.06-11.87,13.48,3.23-1.09,4.92-1.65,6.61-2.22.22.32.43.64.65.95-6.12,4.82-12.5,9.34-18.29,14.53-6.06,5.44-11.81,11.07-18.7,15.62-14.66,9.68-30.98,15.93-46.71,23.35-9.93,4.68-21.1,5-31.86,7.37.72-2.47,2.83-1.74,4.07-2.8-1.47-.59-3.04.42-4.29-.77,12.17-3.89,25.12-4.93,36.75-10.6-1.68-.85-3.2-1.27-4.23-2.7,7.01-2.2,13.66-4.86,19.8-8.77-4.43.42-8.91.82-12.92,2.4-8.5,3.34-15.11-1.47-21.25-5.32-4.62-2.9-9.06-5.02-14.26-6.36-7.11-1.83-13.6-5.83-21.13-6.37-.33-.02-.61-.67-.79-.88-.3-1.78,1.66-1.32,2.09-2.58-7.68-3.75-16-4.99-24.01-6.57-.69-1.83,1.26-1.33,1.46-2.52-1.33-.78-2.66-1.82-4.16-2.41-12.69-4.92-25.38-9.85-38.14-14.58-4.58-1.7-9.35-1.55-14.25-.9-6.04.8-12.3,2.47-18.19-.95,5.61.12,11.15-.08,17.46-1.33-9.58-6.01-18.86-8.85-29.4-8.92-23.09-.16-44.2,8.85-66.23,13.5-5.55,1.17-10.26,5.33-14.52,9.4-7.34,7.01-14.24,14.6-22.3,20.66-4.91,3.7-7.32,7.7-8.1,13.34-.46,3.28-1.38,6.53-1.45,9.81-.29,13.94-1.48,28.12,8.5,41.11-.16-2.76.02-4.48-.39-6.05-2.59-9.88-3.09-19.91-2.66-30.07.14-3.33,1.03-6.85-.75-10.09l-.03.02c3.78-.32,2.76,2.64,2.74,4.43-.13,9.65.55,19.23,1.86,28.8.77,5.64,2.53,12.07,4.9,15.42-4.79-17.97-4.48-35.66-3.64-53.38,1.27,12.09-.78,24.4,2.59,36.37-.81-12.36-.22-24.63,1.9-36.82-.97,10.68.11,21.27.89,31.9,1.16,15.8,7.32,29.75,14.97,43.23.33-.12.65-.24.03-.01.55-.34.26-.16-.04.02,1.29-2-.33-3.46-1.02-5.03-2.76-6.31-4.63-12.84-5.1-19.75,1.43,2.77,2.51,5.67,3.78,8.47,1.95,4.29,2.55,4.94,6.35,7.57-5.65-8.08-7.22-16.47-6.01-25.47.27,8.67,4.24,16.18,7.33,23.97l-.15-.18-.05.14c.75-2,.23-3.89-.49-5.78-3.48-9.22-5.38-18.84-6.45-28.58-.82-7.43.74-14.77,2.05-22.09.17,9.16-.76,18.28.33,27.41,1.09,9.16,4.41,17.53,8.58,25.64-1.42-8.83-4.68-17.27-5.42-26.13-.75-8.95-1.24-18,.44-26.96.42,21.49-.78,43.36,15.35,60.89-4.6-12.18-11.42-23.68-11.71-37.22.13.11.25.22.38.32.8,10.44,12.71,36.83,19.53,42.76-.69-3.31-3.13-5.5-3.38-8.51.28-.27.57-.54.85-.81,2.84,2.55,3.1,7.35,7.49,8.53-1.33,1.15.94,1.68.45,2.69.25-.03.69-.03.7-.11.1-.57-.01-.57-.28-.04-.05.09-.3.08-.45.12.35-.98,1.16-2.05-.56-2.58-1.93-3.81-3.94-7.57-5.76-11.43-7.88-16.7-13.25-33.79-8.77-52.6.61-2.58.66-5.54-1.26-8.14-.57,2.21-1.28,4.61-.72,6.66,1.33,4.86,1.27,9.78,1.65,14.7.76,10,3.1,19.66,7.7,28.59,1.25,2.42,1.55,5.82,4.85,6.85-1.59.62-.59,1.29.04,2.4-.05-1.11-.08-1.75-.11-2.4-.64-.66-.77-1.41-.36-2.33,9.5,4.16,12.46,14.94,20.64,20.46-2.99-5.02-5.78-10.1-7.54-15.6-2.33-7.28-5.33-14.21-8.68-21.08-4.49-9.2-4.92-19.18-4.15-29.24,1.94,9.41,1.38,19.36,6.51,29.02.07-8.85-2.72-16.56-1.36-24.48-.25,17.7,6.34,33.48,13.77,49.02.36.51.72,1.01,1.24,1.74.42-1.25.24-1.86-.59-2.21.33-2.1-1.7-3.74-1.14-5.88.21-.16.43-.32.64-.47.75,3.31,4.28,5.58,3.54,9.45-.35,1.14-1.78-.88-1.95.66-.02.2.34.43.52.65.46-.45.91-.91,1.37-1.36,2.25-.79,1.91,2.32,3.72,2.33-2.88-8.74-6.08-17.41-8.57-26.27-2.42-8.62-3.09-23.61-1.71-27.31.62,6.34.84,12.34,1.89,18.18,1.03,5.7,3.45,11.04,6.07,16.22,2.61,5.15,5.18,10.38,10.86,14.3-1.21-2.13-2.01-3.55-2.81-4.96.25-.23.5-.45.76-.68,3-.28,1.17-2.05.88-3.15-2.83-10.71-7.44-20.81-10.94-31.29-.81-2.42-2.39-4.78-.78-7.91,6.01,2.69,7.36,9.14,10.57,13.45,2.66-.59.73-3,2.55-3.66,1.83,4.24,2.41,9.03,5.84,12.45.26.6.52,1.19.92,2.11,1.07-1.89.71-2.5-.08-2.99-.19-1.89-1.67-3.59-1.2-6.04,3.35,5.3,4.17,11.43,8.99,15.24.22.26.45.52.67.78.05-.14.18-.31.14-.42-.17-.5-.48-.59-.9-.24.58-4.37-3.4-7.04-4.12-10.92.27-.24.53-.49.8-.73,3.03,5.34,6.05,10.67,9.18,16.18.94-2.28-1.27-4.23-.06-6.39,2.89,4.21-.75,10.37,4.57,13.66,1.36-2.02-.63-4.88,1.91-7.19.83,5.25,1.59,10.11,2.45,15.55,2.97-3.71,1.6-7.53,1.92-11.77,3.57,4.87,1.68,9.87,2.69,15.56,2.76-3.91,1.57-7.83,3.07-11.06,1.9,3.82.9,8.03,3.05,11.78.68-2.39,1.36-4.78,2.11-7.43,1.82,3.24-1.55,6.99,1.49,9.74,2.8-.92.9-3.82,2.77-5.16,1.47,2.73.4,6.25,2.66,8.94,1.06-2.13-.19-4.47,1.85-6.66.82,2.18.96,3.78.17,5.48l.31.79c.08-.05.17-.1.25-.15l-.74-.65c6.36-2.27,5.25,2.55,5.21,6.05,2.97-.35,2.27-3.72,4.43-4.38,1.15,1.91-.47,3.83.12,5.67,2.14.36,2.98-2.45,5.12-1.97l-.14-.08c.21,2.29,1.83,3.14,3.68,4.08,5.91,2.99,12.5,4.46,18.07,8.16l.13-.12c-7.65-1.16-14.75-4.24-22.17-6.26,5.8,2.86,11.7,5.38,17.9,7.24,14.23,4.25,29.3,4.31,43.51,8.8,5.03,1.59,10.24,3.15,16.02,1.97-1.42-2.87-5.54-.39-5.96-3.89l-.1.08c6.9-1.99,11.03-7.84,9.94-14.23-.28-1.61-1.44-3.36-2.73-3.52-1.59-.2-2.11,1.65-2.7,3.24-.86,2.36.5,5.43-2.83,7.59,2.22-4.48,1.12-8.64.82-12.96,3.61,4.26,9.7,1.53,13.11,5.22-1.9,2.8-2.52-1.1-4.2-.37-2.43,5.28-.79,12.27-6.36,16.67,6.86-.33,10.15-5.33,13.94-9.63l-.1-.09c.55,5.27-4.53,6.8-7.08,10.5,3.17-.41,6.03-.86,8.9-1.12,14.15-1.29,28.25-3.18,42.53-.56,5.15.94,9.75,3.54,15.17,3.72,4.54.16,8.96-.79,13.54-.53,3.79.21,6.37,2.91,10.29,2.71,11.94-.6,23.92-.54,35.88-.59,3.45-.01,5-1.55,5.9-4.76,1.42-5.03,1.44-10.14,1.86-15.55-4.17,1.64-7.98,4.06-12.01,4.53-8.57,1-17.11,2.07-25.54,3.82-7.25,1.5-15.42.9-20.3,7.9-1.79-.85,1.06-3.14-1.23-3.09-1.39.03-2.28.25-2.23-1.3.05-1.42,1.58-1.72,2.55-1.98,5.23-1.42,10.08-3.66,15.06-5.74,8.2-3.43,16.86-5.82,25.15-9.25,3.81-1.57,7.52-4.18,11.97-4.17l.1-.1c-1.01-.22-1.65.2-1.98,1.15-.54.26-1.2.51-.65,1.25.48.64,1.09.21,1.64.02,8.3-2.22,15.66-6.8,24.11-9.01,4.54-1.19,10.78-2.15,13.26-7.47,1.84-.07.23,2.66,2.2,1.85.68-.28,2.11-.73.83-2.03l.03.09c3.53,1,4.07-3.1,6.59-3.88.31.65.62,1.29,1.03,2.12,3.05-2.16,6.17-4.12,9.07-6.08,5.59-3.78,11.45-7.54,15.94-12.86,1.82-2.15,3.89-4.11,6.05-5.91,1.32-1.1,1.02.16.87.91-.31.34-.63.69-.94,1.03-.26.4-.53.79-.79,1.19-.61.17-.88.56-.82,1.19-.27.28-.82.72-.77.82.51.9.91.1,1.35-.16ZM318.46,32.35c.27.83-.41.99-.9,1.29-.21.65-1.4,1.05-.46,2.02.59-.65,2.59-.99.38-2.09.49.07.91.79,1.49.03.64-.82-.3-.88-.52-1.28.43.15.49,1.28,1.3.48.82-.81-.33-.85-.48-1.27.41,1.63,1.16.92,2.11.43,2.14-1.1,3.61-3.41,6.26-3.51-.02-.43-.04-.86-.06-1.29-.2.13-.4.26-.6.39.26.3.52.61.79.91-3.65-1.27-5.44,2.61-8.46,3.07.15.73-.17.97-.87.82ZM346.29,125.76c-.11.22-.23.44-.34.66.23.04.47.09.7.13-.16-.24-.32-.48-.48-.71-.52-.86-1.3-1.01-2.21-.85-2.03-2.61-5.04-.22-7.69-1.76-7-4.09-19.13.58-20.73,7.99-1.14,5.27-.89,10.84.41,16.28,1.65,6.89,5.83,11.34,12.44,13.43,13.69,4.32,24.87-1.2,29.86-14.56q4.27-11.44-5.23-19.47c-1.98-1.66-3.51-4.52-7.58-3.56,5.87,3.35,9.35,8.22,13.29,13.27-13.37,4.44-25.76,3.17-38.2-1.53,1.15-2.12,2.62-3.37,2.81-5.85-1.09.56-1.63.85-2.18,1.13l.05.16c-.86-2.53,1.17-2.86,2.72-3.56.14.19.28.39.41.6-.53.7-1.76,1.15-.64,2.73,6.54-2.17,12.72-6.51,20.25-5.27.43,1.38,1.27,1.48,2.35.76ZM601.84,481.73c.55,1.1,1.07.38,1.6-.02,4.02-1.9,3.12-4.57,1-7.24-3.29-4.14-9.83-5.59-15.34-3.55-.13-9.11-1.35-11.46-9.34-13.03-13.54-2.66-26.65-6.91-40-10.26-3.43-.86-7.38-.68-10.02-2.89,18.05-3.85,36.15-2,55.05-.39-2.58,4.27-6.61,2.85-9.48,5.7,6.96,3.83,14.1,6.59,20.05,11.4-2.66-5.1-7.63-7.26-12.23-9.91,6.01.19,10.99,2.59,15.5,6.16,1.05.83,2.26,1.72,3.62.94,1.29-.73,1.35-2.16,1.38-3.54.04-1.7-.54-2.79-2.25-3.4-1.5-.54-3.35.08-4.76-1.56,1.74-1.27,1.71-3.31,2.02-5.91,1.27,1.54,2.01,2.45,2.81,3.42,7.08-18.78,2.44-45.87-9.16-53.36-1.38,3.52-3.48,6.6-6.12,9.47,3.42,2.52,7.37,3.37,10,6.26.74.81,1.86,1.6.95,2.95-.87,1.28-1.9.83-3.06.33-4.97-2.13-9.97-4.18-15.76-6.58,2.78-.87,2.56-3.03,3.03-5.19,1.72,1.18,3.02,1.34,4.46.31,3.65-2.62,5.33-9.35,3.38-13.39-2.57-5.35-7.83-8.46-10.94-13.34-.21.26-.42.52.23-.29-.59.84-.4.57-.2.29-2.32,3.61,2.67,6.29,1.02,10.94-.22-2.66-.89-4.03-2.66-5.86.12,3.34.2,6-1.73,9.15-.68-5.8-1.46-10.72-1.8-15.66-1.19-17.19-4.87-33.02-22.07-41.57-.08.15-.38.75-.82,1.61-2.88-6.4-3.67-13.72-10.86-18.46,1.81,12.71.19,24.54,1.17,36.35-.71-2.99-1.06-6.01-1.35-9.05-1.48-15.38-3.54-30.65-8.47-45.39-5.8-17.31-19.12-27.86-33.62-37.34-.16-.51-.5-.89-1-.56-.14.1.1.78.17,1.19.98,2.96,3.41,5.35,3.88,9.71-2.65-3.69-4.98-6.3-6.59-9.29-4.87-9.07-11.15-16.19-22.08-17.57-.46-.28-.92-.45-1.23.15-.04.07.4.39.62.59,4.77,16.03,10.05,31.94,14.17,48.14,3.79,14.87,8.3,29.8,5.91,45.55-.61,4.02-1.14,8.06-1.71,12.08l1.37.21c8.12-17.97,7.41-37.54,8.39-57.75,2,2.33.38,4.14,2.15,5.71.28-2.02.31-3.67.76-5.19.76-2.55-2.81-1.16-2.7-3.17,1.17-.22,2.27-.43,3.66-.69,1.83,10.35,2.12,20.76.57,30.85-1.73,11.24-5.49,22.16-8.06,33.29-5.94,25.76-16.73,49.98-23.97,75.33-3.91,13.68-9.05,27.01-10.74,41.27-.61,5.17-2.92,9.78-5.48,14.31-1.39,2.45-4.92,3.11-5.13,6.44,3.4.25,3.84.36,6.61-2.94,10.59-12.65,18.73-26.96,27.23-41,2.85-4.71,4.47-10.37,7.99-14.42,4.77-5.49,7.86-11.61,10.6-18.12.95.15.02,2,1.61,1.83,1.68-2.22,1.94-5.07,2.29-6.32,6.27-2.99,8.97-7.8,12.1-12.1.75.46,1.52.92,2.54,1.54-2.61,2.2-3.92,4.96-5.17,7.93-.92,2.18-1.38,5-3.99,6.23-.81-1.69,2.05-2.97.5-5.06-3.78,4.17-6.02,9.01-9.07,13.97,2.87-.12,2.89-2.86,4.76-3.13.31,2.9-2.22,4.17-3.7,5.82-5.37,5.97-9.24,12.73-12.32,20.72,8.63-3.41,17.02-6.04,21.57-14.61,1.07-2.01,2.8-3.71,4.35-5.43,13.41-14.89,20-32.55,21.33-52.35.23-3.39.53-6.78.85-10.92,2.74,2.33,5.36,3.59,4.35,6.45,10.04-2.83,10.28-13.44,15.55-20.33-.7,4.21-1.88,8.16-2.85,12.15-.73,3.02-1.91,5.77-4.54,7.49-8.06,5.26-7.8,13.87-9.7,22.06,4.53-.72,2.85-5.33,6.1-7.36-1.15,6.21-2.19,11.77-3.42,18.39,4.69-5.19,1.64-12.23,6.68-16.55,1.13,4.34-4.84,7.16-1.47,11.62,5.34-3.63,8.73-8.72,11.77-15.25.84,4.85.5,8.03-2.29,11.38-6.94,8.34-15.12,14.9-24.83,19.63-6.81,3.31-10.23,9.83-14.71,15.44,6.76-3.51,11.25-9.97,18.46-12.86,6.94-2.79,12.97-8.07,21.75-7.21-4.67,1.97-10.28.55-13.49,5.75,4.77,1.3,8.4-2.2,13.44-1.18-6.35,7.29-17,5-22.21,11.11-5.79,6.79-16.28,4.82-20.83,13.38,12.78-6.96,25.69-6.96,38.99-1.87-1.61,1.51-3.51,1.47-5.18,1.99-.16-.54-.32-1.07-.48-1.61-3.33-1.28-6.55-2.96-10.27-2.72,3.38,1.22,6.48,3.55,10.37,2.65-.99.83.41,1.02.42,1.58-.53,1.51-2.01,1.53-3.15,1.79-8.81,2.04-17.79,1.77-26.76,2.02-16.85.48-30.58,7.26-41.35,20.49-7.74,9.51-12.22,21.42-21.95,29.42-.72.59-.69,1.45-.4,2.43,2.6,1.11,4.99-.14,6.79-1.6,4-3.23,8.14-6.51,11.29-10.51,5.37-6.81,11.24-10.47,20.17-7.34,4.03,1.41,8.39,1.99,12.64,2.64,7.95,1.21,15.93,2.2,23.49-1.82.62-.33,1.08-.35,1.8-.17,3.59.92,7.14-.27,10.26-1.48,4.8-1.87,9.54-4.06,14.57-4.9,5.86-.97,11.88-1.59,17.97-.23-5.99,2.33-12.56,3.13-17.28,8.36,2.41.34,4.13-1.77,6.67,0-13.99,3.09-27.33,7.57-38.4,16.23.27,4.09,5.82,2.73,6.95,6.42-.88.77-1.04-.84-2.27-.36,1.5,2.5.52,5.91,3.29,8.22,1.29-1.99-1.08-3.35-.24-4.98,1.87.07,1.73,2.04,2.76,2.93,2.06,1.79,3.3,1.62,3.76-1.23l-.02.05c1.45-1.88,4.41,1.04,5.66-1.88-1.26-1.62-3.92-2.39-3.7-5.57,1.75,1.71,3.27,3.1,4.67,4.6.98,1.04,2.02,1.12,3.01.3.87-.73.09-1.46-.35-2.11l.08.19c1.68,1.24,3.42,1.79,5.65,1.71,8.27-.3,16.54.05,24.8-.84,9.45-1.02,19.42.31,27.63-6.17,2.26-1.79,4.34-.94,6.44.22,2.99,1.65,5.9,3.53,10.02,3.83-2.47-3.61-5.11-6.26-7.84-8.9-4.25-4.1-8.9-4.95-14.04-2.33-6.77,3.45-14,5.59-21.19,8.02,4.24-5.53,4.87-14.22,13.81-15.76.86,2.5-.21,4.49-.67,6.54-.3.51-.52,1.02.03,1.51.24-.29.48-.58.72-.86,1.96-.29,1.53-3.44,3.89-3.25.23.16.45.32.68.48-.05.03-.11.06-.16.1.12-.23.24-.45.36-.68ZM349.89,513.89c1.94-.18,3.84-.42,3.97-3,.69,1.18,1.39.19,1.99-.06,8.85-3.74,12.11-12.55,17.5-19.43.41-.64.82-1.29,1.32-2.08-.67-.14-1.23-.25-1.79-.37.76-3.07,3.09-5.16,4.72-8.62,1.23,13.69,1.64,14.82,5.62,16.29.45-1.93-1.75-3.39-.97-5.57,1.95,2.28,2.98,5.12,6.08,7.33-1.67-5.19-2.84-9.68-4.54-13.96-2.87-7.22-6.55-13.99-14.35-17.02-5.7-2.22-11.57-4-16.98-6.95-2.03-1.1-4.15-.6-6.27.14-9.87,3.44-19.69,7.04-29.67,10.13-9.62,2.98-18.34,7.15-26.36,13.49-10.18,8.05-21.64,13.32-35.35,12.43-8.52-.55-17.06-.82-25.67-1.6,5.88,1.98,10.69,6.51,17.31,6.4,7.99-.14,16-.46,23.97-.04,7.8.41,15.34-1.94,23.24-1.18,4.54.43,9.36-1.9,14.04-3.03.63-.15,1.2-.53,1.79-.8.25.27.49.53.74.8-.4.89-1.05,1.41-2.01,1.35.18.34.36.69.55,1.03.12-.1.24-.2.36-.29-.35-.24-.71-.47-1.06-.71,3.83.09,6.73-1.86,9.4-4.28,1.48-1.34,2.29-3.89,5.1-2.76v-.03c-1.4.79-2.58,1.7-2.19,3.59,3.22.31,3.34-3.47,5.86-3.99.65,1.58-.27,4.14,2.67,3.77.2.2.4.4.61.59-7.87,6.34-15.39,13.37-26.6,12.78-3.17-.17-3.16,2.77-3.51,4.5-.46,2.23-1.68,5.69.93,6.82,8.23,3.55,16.06,8.88,25.76,7.45l-.14-.09c.27,1.04-1.5,1.79-.52,2.87,1.56.86,2.34-.77,3.54-.85.11.17.21.34.29.53-.11.64-.55,1.59-.29,1.85,1.17,1.17,2.05-.01,2.84-.69,4.85-4.15,9.69-8.32,14.47-12.56.56-.49,1.81-1.11.64-2.24,1.75.51,2.9.12,2.98-1.94ZM172.95,504.96c.1-1.04-.55-1.27-1.49-1.35.22.9.13,2.01,1.58,1.21-.48,2.65,1.05,3.49,3.77,4.1-1.09-2.08-2.13-3.35-3.85-3.97ZM180.08,504.01c-1.75,1.06-1.42-1.98-2.99-1.4-1.21,2.72,1.42,3.51,2.78,4.67.77.66,1.22-.48,1.04-1.4,3,.72,6.29.12,7.99-1.89,1.74-2.07,2.59-.44,3.82-.16,1.52-4.61-1.26-4.67-4.36-4.43-.25,1.07-.49,2.13-.83,3.61-1.38-2.27-1.35-1.92-2.28-1.83-1.73.15-1.89,2.55-3.72,2.3-.31-.29-.63-.58-.94-.87-.17.47-.33.94-.5,1.4ZM347.44,137.54c2.13-.9,5.03-.15,6.39-3.06-1.4-1.71-3.28-2.37-5.44-2.96-.56,1.96-1.05,3.66-1.54,5.37-.41.11-.94.23-.58.77.1.15.76-.07,1.17-.12ZM316.83,93.91c1.76.83,1.51-1.94,2.43-1.73,1.85,2.47,6.44,3.55,2.86,7.84,2.05-.45,2.96-1.31,3.8-2.57-2.76-2.71-3.93-6.39-6.04-10.65-1.12,2.92-2.89,4.62-2.92,7.2-.18.26-.36.53-.54.79.14.02.33.12.42.06.42-.3.38-.62-.01-.93ZM299.86,47.3c-.47-1.01-1.29-1.11-1.92-.38-3.42,3.93-5.2,8.41-4.58,14.87,3.11-5.23,2.49-10.91,6.46-14.44-.2-.4-.41-.79-.61-1.19-.15.19-.3.39-.44.58.37.19.74.37,1.11.56ZM177.71,477.16c.05.76.07,1.53,1.02,1.8.83-.94.29-1.68-.34-2.41-1.09-6.09-1.98-12.23-4.35-18.01v8.45c-3.64-3.59-2.86-9.16-5.9-13.05,1.43,9.69.56,20.06,8.51,27.94.77-2.61-1.19-4.67-.71-7.02.59.76,1.18,1.53,1.77,2.29ZM579.8,654.05c.94-.22,2.04.23,2.79-.67-.54-1.71-.94-3.48-1.66-5.1-.65-1.46-.67-4.35-3.32-3.12-2.9,1.34.35,2.95.37,4.59-.93.16-1.84.31-3.29.56,2.16,2.91,3.15,6.08,4.65,9.65-1.34-3.88,2.98-2.31,3.4-3.77-.49-2.02-3.96,1.61-2.8-2.24l-.13.12ZM606.03,633.84c-1.44,3.86.46,6.45,3.34,8.7.84-.86,2.36-1.23,2.12-2.78-1.14-.94-2.89,1.69-3.88-1.51,1.9-.35,3.74-1.05,5.5-.9,1.89.16,3.54.49,5.02-1.47-3.09-.03-5.93.57-8.96-.22,3.55-2.7,7.81-.72,12.3-2.66-5.62-2.33-10.15.97-14.68.03,3.34-2.92,7.46-2.69,11.41-2.56,5.47.18,10.95.38,16.38.91-10.38-2.56-20.78-4.49-31.29-.27.2,1.7-.2,3.88,2.73,2.72ZM555.42,657.4c-1.12-.75.38-2.79-1.85-3.23-3.22,8.52,1.81,16.5,1.41,24.77,3.41-7.17,1.08-14.39.44-21.55,1.24.26,1.3,1.21,1.45,2.23.77,5.37,1.6,10.73,2.48,16.61,3.27-4.79.17-9.1.47-13.36,3.47,1.98,1.09,6.72,4.28,9.2,1.46-2.14-.49-4.94,2.74-6.6-1.91.04-3.52,1.16-2.95-1.02.36-1.42,1.97-1.69,3.13-2.16,2.65-1.08,5.39-1.92,8.74-3.08-2.86-.76-4.88,1.08-6.91-.19,1.09-2.95,5.07.34,6.07-2.82-1.76.44-.81-4.15-3.57-1.88.03,1.04,2.44.65,1.32,2.48-2.68.43-5.81-.18-8.53,2.05.75.15,1.12.13,1.37.29.23.15.32.5.47.76-.83,2.35-2.46,1-3.75,1.11-.75-2.48-1.17-4.79-3.24-6.89,0,1.61,0,2.72,0,3.83-1.13-.53-1.9-3.35-3.56-.57ZM396.23,47.8c-.08.22-.15.45-.23.67.23.01.46.02.69.04-.19-.21-.39-.42-.58-.63-9.49-6.02-19.85-7.32-30.68-5.97,1.73.59,3.56.42,5.35.65,1.48.18,3.61-1.03,4.24,1.56-22.46,1.84-35.08,7-40.67,16.87,5.28-5.07,11.28-8.8,18.36-10.85,12.01-3.47,24-5.06,36.05-.4,2.14.83,2.57-.34,3.12-1.79,1.41-1.35,2.97,1.41,4.36-.15ZM450.85,57.98c2.23-.26,2.83,1.74,3.84,2.96,3.57,4.31,6.71,8.92,8.88,15.5.48-10.39-4.48-17.89-13.11-21.39-.52.59.59,1.57-.51,2.02-.86.69-1.65-1.5-2.63.1,5.96,8.35,10.98,17.23,12.22,27.8,1.75-7,.48-13.35-3.46-19.29-1.72-2.59-4.3-4.6-5.23-7.71ZM637.51,624.44c1.77.75-.68,2.5,1.03,3.43.65-4.82,4.06.01,6.05-1.85-2.39-1.06-4.22-3.41-7.09-1.5-.12-.47-.24-.95-.37-1.47-2.13-.23,0,3.21-2.49,2.65-1.87-.95,1.05-2.22-.49-3.62-5.38.1-11.2-2.25-17.04.65,5.17.3,10.34.59,15.52.89,0,.52.01,1.04.02,1.57-8.81,1.24-18.46-2.93-26.49,3.41,8.57-3.47,17.37-1.61,26.07-1.11,2.77.16,4.23-.79,5.29-3.04ZM297.72,81.29c-2.29-4.69-4.93-9.3-3.04-14.97-6.27,8.9-3.29,19.43,6.05,22.27.06-5.22-.57-10.22-2.1-16.13-1.2,3.71.77,6.48-1.01,8.99l.1-.16ZM654.2,628.2c-.34-.26-.68-.51-1.02-.77-.31-2.21,2.88-.98,3.04-2.64-1.5-2.02-3.37,1.01-4.84-1.1.32-1.94,1.66-4.53-1.79-5.6-7.33-2.29-14.79-3.55-22.48-2.84-2.08.19-4.24.56-5.22,2.89,1.63,1.66,3.53,1.33,5.31,1.36,6.51.14,12.81,1.51,19,3.39,2.8.85,5.19,2.15,5.17,5.77,0,1.24.61,2.58,1.25,3.7.97,1.69,2.56,1.12,3.98.63.21-.07.28-.53.48-.94-1.04-.21-2.01-.4-2.86-.57.03-2.2,2.56-1.31,3.02-3.08-1.11-.08-2.07-.14-3.03-.21ZM299.46,163.63c-1.77-.92-2.27-.42-1.27,1.28,2.88,4.87,4.66,9.58.74,14.97-1.99,2.74-.52,5.24,2.34,6.84,2.44-1.57,5.13-3.12,4.99-6.02-.48-10.08-2.19-20.03-4.04-30.06-.9-.41-1.92,1.35-3.31-.36v-9.11c-2.07,2.08-2.21,4.23-2.41,6.37-.52,5.51,1.65,10.37,3.61,15.29-.22.27-.44.53-.66.8ZM385.75,526.75c.27.24.54.47.81.71.24.72-.13,1.7,1.11,2.12,4.83-8.6,9.68-17.23,14.74-26.24-9.19-.79-17.15.91-23.67,7.51-1.1,1.11-2.29,2.1-3.91,2.79-2.58,1.11-4.82,3.49-4.69,6.4.12,2.75,3.36,2.76,5.38,3.66,2.11.93,5.99,1.16,6.26,2.34,1.02,4.48,2.59,1.16,3.97.71ZM400.37,271.36c.42.4.83.8,1.25,1.2-.96,2.44-2.82,4.5-4.9,5.49-8.52,4.05-7.98,11.34-7.61,18.87.44,9.05,0,18.14,1,27.38,4.5-1.01,5.02-4.15,4.64-7.36-.71-5.99-.29-11.96-.36-19.25,2.05,7.99.32,15.02,2.6,21.8,6.87-8.64,1.22-18.85,3.51-27.5.53,6.74,1.11,14.08,1.77,22.6,7.92-8.08,2.5-17.23,4.27-23.68.94,3.81,1.47,9.08,2.51,14.34,3.67-11.09.17-22.77,3.05-33.93,1.62.98-.06,2.99,1.98,4.23v-17.05c-2.06,3.05-3.06,6.41-5.76,8.69-.82-1.41.98-2.4-.1-3.49l-.14.14c3.58-5.01,2.87-11.23,4.77-16.74l-.14.15c3.03-4.54,4.34-9.6,4.9-14.9-2.32,3.51-4.51,7.03-6.23,10.77-2.48,5.38-6.25,10.14-7.71,16.01l.14-.11c-1.61,4.05-3.36,8.06-4.73,12.2-.33,1,.82.15,1.29.14ZM344.19,289.44l.12-.05c1.99,6.29,7.78,9.46,11.78,14.18v-10.89c1.87,6.57-1.78,14.66,6.98,19.15v-20.4c1.3,5.72,1.3,11.53.86,17.24-.38,5.03,2,7.71,6.15,10.55-.33-13.76.98-26.92-2.36-40.44-2.74,3.52.05,7.21-1.91,11.02-2.23-5.31-1.07-10.52-3.08-16.44-1.89,5.79-.08,10.14-.36,15.35-4.14-4.61-1.92-10.37-5.08-14.91-1.36,4.1.53,7.86-.61,11.67-6.26-11.27-5.49-23.56-7.93-35.21.66,9.28,1.32,18.56,1.98,27.83-.45.04-.89.08-1.34.13-1.95-5.04-1.24-10.46-1.81-15.73-.56-5.14.33-10.7-3.44-16.31,1.1,10.23,2.14,19.34,1.61,28.53-3.56-10.55-1.07-21.99-4.23-32.57-.44.06-.88.12-1.32.18.62,8.97,1.25,17.95,1.87,26.92-3.47-10.2-2.28-21.18-5.86-31.32-.78,5.38-.4,10.65-.1,15.95.28,5.04,2.19,10.12.15,16.45-1.23-9.95-3.52-18.74-3.05-27.38.48-8.8-4.37-14.71-7.7-21.61-.06-.13-.58-.05-1.23-.09-.31,3.42-.33,6.78.37,10.21,1.99,9.76,4.27,19.56,3.9,29.54-.48,12.83,8.05,20.27,15.62,28.44ZM471.08,336.12c1.98,6.29,1.93,12.91,3.14,19.33,1.4,7.46,2.37,15,5.38,22.72,2.26-6.45.71-12.58,2.07-18.43,2.1-9.03,4.77-17.98,5.44-27.25,1.11-15.28-2.34-30.08-6.06-44.72-4.1-16.09-9.67-31.74-15.5-47.29-1.71-4.56-4.06-8.57-10.34-8.58,3.07,7.15,5.93,13.8,8.79,20.46-3.54-4.62-6.34-9.6-9.1-14.61-2.73-4.95-5.42-9.93-8.96-14.37-3.5-4.39-7.09-8.71-11.22-13.76,14.36,41.53,23.08,83.38,33.19,124.94,2.18-7.25-1.75-14.17-1.3-22.47,2.44,8.66,3.87,16.36,4.6,24.17-3.83-1.48-3.5,1.22-4.55,3.67,3.26-.33,3.76-2.15,4.41-3.82ZM459.44,541.64c-.78-.14-1.83-.67-2.29-.35-2.59,1.83-4.53,12.23-2.99,15.19,6.66-4.5,17.18-18.58,19.64-25.43,6.45-3.38,8.58-8.53,11.47-14.8.45,4.71.76,7.99,1.1,11.49,7.89-2.85,11.14-8.86,13.09-15.92.25-.89.46-1.26,1.41-1.93,2.12-1.5,4.67-3.13,5.89-5.78l.23-.24c.79.18,4.56-1.93,4.68-2.68.43-2.73.82-5.47,1.22-8.17,1.76.14.72,2.74,2.63,2.55q.94-2.65.47-5.88c-16.68,1.53-33.41,2.7-50.01,7.51,2.09,1.97,4.56,1.97,6.51,3.09-.22.25-.45.51-.67.76-.55.21-1.11.43-1.66.64-.17.17-.35.35-.52.52-7.93-3.62-16.95-4.24-24.45-9.16-2.4-1.58-5.54-2.53-8.56-1.92-3.57.72-6.83-.26-10.18-1.03-8.36-1.9-9.6-1.27-13.71,6.82-.09,1.71,3.6.46,2.38,2.76-1.53,2.9-3.36-1.56-5.1-.04-10.95,13.55-18.62,30.36-18.85,41.38,4.65-.47,3.68,3.59,4.61,6.19,9.66-7.49,10.04-20.59,18.36-29.03.66,1.08-.24,2.8,2.01,2.63,1.98-9.07,9.11-15.85,11.6-25.81.26,1.22.5,1.78.46,2.32-.58,8.95-3.83,16.99-7.96,24.87-5.25,10.03-8.23,20.75-8.27,31.55,7.13,2.82,9.5-1.89,11.66-6.43,3.34-7.04,7.06-13.88,9.65-21.3,2-5.73,5.03-11.1,7.61-16.64-.26,6.79-5.72,11.66-6.34,19.52,3.64-3.76,4.94-7.52,6.5-11.11,1.53-3.53,2.71-7.26,6.15-9.65-.49,2.24-1.38,4.3-2.22,6.38-2.12,5.23-5.83,10.42-5.96,15.7-.23,9.17-9.08,16.5-5.02,26.29.12.3-1.7,1.21-.33,2.18,1.01.72,2.04.89,3.17-.02,2.49-2,4.56-4.32,6.13-7.13,4.86-8.7,9.82-17.35,13.99-26.42,2.12-4.6,4.8-8.86,8.04-12.61,2.8,3.47,1.75,6.29.02,9.38-2.02,3.61-3.42,7.56-5.19,11.31-1.23,2.6-1.26,5.07.25,7.54-.23.29-.45.58-.68.87ZM467.29,396.21c.33.35.65.7.98,1.05-1.07,1.7-4.79,2.12-2.74,5.36,1.79-.34,1.73-2.96,3.75-2.88,1.84,1.6-.45,4.03,1.62,5.84,0-1.59-.03-2.89,0-4.19.66-21.42-4.02-42.26-7.16-63.23-5.36-35.79-14.05-70.86-25.04-105.33-1.91-5.99-3.42-12.27-7.48-18.24-.52,1.9-.88,2.99-1.12,4.1-4.2,19.57-3.21,39.42-2.73,59.19.71,29.6,1.87,59.2,4.68,88.69.9,9.39,3.14,18.64,4.6,27.99.33,2.14,1.23,2.41,3.9,1.26-2.92,2.9-5.26,5.28-.17,6.79-2.42,1.69-2.07,3.91-1.28,6.15,1.13.97,2.68-1.06,3.62.65h-.07c-3.84,2.18-3.84,7.59.05,10.21-1.21,1.09-2.57,2.08-1.81,4.08.58,1.52,1.53,1.43,2.7.85l-.1-.11c.14,2.21-3.9,3.34-1.35,6.34,1.54-.71,3.54-.73,4.51-2.7l.04-.07c1.12,2.94-1.55,2.61-2.92,3.25-1.98.93-2.88,2.12-1.68,4.36,1.19-.17,2.37-.33,4.08-.57-1.42,2.32-6.44,1.42-3.99,5.97,2.87-1.09,5.72-2.17,8.85-3.36-1.76,4.57-9.56,1.91-9.78,9,3.94-1.43,6.96-2.53,11.06-4.02-3.46,5.04-10.33,3.14-12.54,9.16,4.75-.49,8.31-2.48,12.29-3.78-.73,3.38-12.84,7.81-16.18,6.38-.2-2.06,2.6-1.33,2.77-3.16.02-1.65-2.62-.29-2.68-2.04q2.41-3.17.01-5.67c1.17-1.11,2.91-1.92,2.6-3.93-.41-2.61-2.9.35-3.85-1.19,4.29-4.01,4.27-4.73-.2-6.16,1.71-.97,2.9-1.98,2.51-4.3-.34-2.04-2.1-.8-2.83-1.65,3.35-4.11,1.64-11.69-3.86-12.94,2.6-.26,4-.68,3.98-2.89-.03-2.71-2.25-2.46-4.18-2.8,3.61-3.66,3.29-5.43-.71-7.25,4.33-2.37,1.33-3.7-.65-5.06,1.69-1.43.98-3.06.74-4.89-.88-6.76-2.96-13.35-3.64-20.05-1.74-17.23-1.9-34.56-2.04-51.88-.17-21.32-.56-42.64-.89-63.97-.02-1.36-.29-2.72-.51-4.75-1.59,1.9-1.19,3.45-1.29,4.8-.82,10.95-.9,22-2.43,32.85-2.8,19.93-1.73,39.9-1.41,59.84.29,18.1,1.81,36.21,5.94,53.92,4.12,17.68,6.38,35.55,6.91,53.69.25,8.49.85,16.97,1.29,25.33,1.13.3,1.16-.39,1.21-.78.81-6.18,1.72-12.35,2.28-18.55.18-1.98.78-3.13,2.61-3.57,2.74-.66,5.44-1.71,9.17-1.43-2.76,2.03-5.58,2.39-7.36,4.39-2.07,1.19-2.96,2.84-2.18,5.41,4.58-1.1,9.01-1.82,13.32-3.41,2.54-.94,2.79-.28,2.49-3.24-4.17,2.95-9.57,1.75-14.07,4.03.38-.68.76-1.36,1.13-2.03,4.24-2.71,10.45-1.42,13.77-6.43,2.62,3.76,2.26,8.44,2.54,13.01,7.43-72.32.07-143.34-18.17-213.21-.69,1.55,1.24,2.17,1.65,3.49,5.18,16.4,11.14,32.6,13.77,49.68,2.78,18.04,2.85,36.38,6.04,54.41,2.11,11.93,3.41,24,5.12,36.35,1.03-.89,1.77-1.52,2.51-2.16ZM137.06,540.9c1.32,1.09.03,1.68-.52,2.29-6.03,6.65-12.03,13.33-18.16,19.88-2.66,2.84-4.82,5.81-5.92,9.65-1.09,3.81-2.84,7.42-4.17,11.16-5.44,15.31-13.66,29.74-16.04,46-2.14,14.61-3.97,29.2-8.11,43.45-1.31,4.49-3.82,6.42-7.98,6.74-17.05,1.32-34.13,2.41-51.17,3.85-5.23.44-10.66.12-16.48,2.22,1.52,1.19,2.25,1.84,3.05,2.37,15.22,9.92,31.37,17.94,48.26,24.68,10.03,4.01,19.09,4.02,28.27-1.74,4.46-2.8,8.99-4.99,12.36-9.62,14.17-19.43,17.78-42.3,21.38-65.01,1.79-11.28.93-22.95,1.92-34.38.83-9.61,5.81-18.06,10.24-26.25,3.11-5.75,7.66-10.75,9.44-17.46,1-.37.35,2.28,2.01,1.2.17-2.86.63-5.47,3.75-7.25,2.23-1.27,4.04-3.58,4.92-6.27,3.97,1.77,5.67-2.07,8.32-3.45,11.32-5.9,22.56-11.97,33.82-17.93,15.52-8.21,31.71-12.14,48.8-14.22,8.54-1.04,17.26-.97,26.18-3.52-5.51-1.8-10.76-2.2-15.76-2.05-9.57.29-18.48-1.22-26.92-5.78-2.17-1.17-4.64-1.77-6.98-2.62-2.87-1.05-5.41-.95-7.71,1.49-4.99,5.29-11.27,7.9-18.47,8.76-2.75.33-5.64,1.17-8.02,2.56-13.67,7.99-29.35,12.61-40.87,24.22-.44.44-.95.95-1.56.18-.16-2.7,3.04-4.1,2.83-6.82-5.77-1.18-10.88-4.81-16.87,1.19-4.98,4.99-4.57,10.54-6.1,16.43,4.82-.14,8.07-3.55,12.26-3.93ZM314.54,208.16l-1.3.02c-1.17,11.93-2.35,23.85-3.52,35.78-1.19-15.68.48-31.38-.74-47.65-13.61,5.21-21.05,14.84-24.75,27.54-4.74,16.28-5.22,33.07-5.53,49.89-.36,19.63-1.17,39.25-3.78,58.74-1.21,9.05-2.72,18.06-3.61,27.14-1.81,18.32,4.08,35.82,6.26,53.72.21,1.71,1.17,4.37,2.36,4.74,4.78,1.5,4.27,6.33,6.63,9.21,4.88,5.97,9.55,12.43,18.42,12.77.61.02,1.18.86,1.67,1.24,1.67-.39,1.47-2.64,3.2-2.78.9,1.93-1.08,4.46,1.65,6.13,3.98-11.18,4.38-22.84,5.47-34.29,1.74-18.21,2.77-36.48,3.94-54.74,2.14-33.53,5.38-67,2.39-100.69-1.42-15.95-6.45-31.07-8.75-46.78ZM419.68,211.41c3.28,2.67,5.33-.9,6.33-1.89,8-7.97,12.63-17.87,15.07-28.89,1.42-6.41.19-13.09,1.77-19.33,1.83-7.23.67-14.12-.43-21.14-.24-1.52-1.24-1.75-2.8-1.13-.45,5.51-.77,11.21-4.65,15.75-8,9.35-17.97,13.76-30.16,10.58-11.9-3.1-18.64-11.37-20.9-23.35-.51-2.7-1.35-5.84-4.37-5.81-4.13.03-8.6-1.81-12.46,1.39-1.06.88-1.06,1.9-1.31,3.04-.83,3.88-2.06,7.63-3.87,11.17-5.26,10.31-18.33,16.65-29.97,14.09-9.85-2.16-22.11-10.43-22.12-24.16,0-1.21.54-3-1.55-3-2.47,0-1.79,1.97-1.6,3.31,1.82,12.95,1.48,26.17,4.44,38.96,1.73,7.46,2.7,15.16,7.16,21.9,6.86,10.36,16.77,16.97,26.73,23.83,8.67,5.97,17.59,9.83,28.25,8.24,11.64-1.73,24.17-.97,32.14-12.7.72-1.06,2.88-4.27,6.43-4.16,3.9.12,8.08-1.01,7.87-6.69ZM224.9,242.41c9.17,20.42,18.79,39.51,26.16,59.65,7.38,20.18,9.45,41.23,11.27,62.42.4-.06.81-.12,1.21-.19.63-3.01,1.27-6.03,2.18-10.35,1.14,8.87-2.03,16.49,1.34,23.98-.99-20.06,5.9-39.21,5.97-59.21.07-19.98-2.13-39.93-.55-59.93,1.18,6.97-.22,14.19,1.91,22.25,2.19-15.43,2.72-29.73,3.85-43.99.84-10.63,3.04-21.05,9.7-29.93.71-.95,1.79-2.1.71-3.77-2.69,1.17-5.13,3.19-8.14,3.41-9.44.68-14.72,6.82-18.95,14.28-2.38,4.2-5.59,7.63-9.95,9.43-8.85,3.66-16.07,10.71-26.68,11.93ZM382.51,323.73c.72,2.03-.14,4.34,2.58,4.13,2.21-.16,3.22-1.46,3.21-3.63-.01-3.16-.02-6.33-.02-9.49,0-9.9,0-19.81,0-29.71-.3-.48-.59-.95-.89-1.43-3.22,6.35-8.08,3.12-12.27,3.57-1.55-1.72-.77-4.98-4.08-6.03,0,12.51,0,24.62,0,36.74,0,3.74,2.36,5.41,5.34,6.61,2.35-9.58-.75-18.86.08-28.84.63,11.41-.21,22.39,3.85,33.45,2.33-2.09,1.73-3.54,2.19-5.38ZM92.32,612.95c4.87-11.37,9.47-21.55,12.25-32.37,2.14-8.32,5.91-15.38,12.54-20.95,2.57-2.16,4.87-4.75,5.54-8.23-1.89-1.23-3.17-.26-4.48.4-3.84,1.96-7.71,3.85-11.49,5.92-7.33,4.01-11.7,10.15-12.66,18.51-.81,7.07-.22,14.23-1.31,21.31-.72,4.64-1.48,9.35-.4,15.41ZM663.16,656.53c-1.49,5.92-3.9,11.06-6.47,16.24,15.59,2.73,34.08,2.59,43.77-.24-1.67-6.12-2.97-7.07-9.06-5.89-4.02.78-8.26,1.4-11.59-.99-5.05-3.62-10.88-5.58-16.67-9.11ZM143.18,518.87c7.13-8.23,14.3-9.67,21.41-5.16,4.08,2.59,4.19,2.57,8.31-1.02-4.03-2.67-5.67-7.18-8.42-11.04-5.86,3.16-12.19,4.33-18.32,6.17-7.91,2.37-13.25,8.95-12.18,15.64,5.49-2.84,11.29,1.27,16.92-1.2,2,3.87,4.03,3.47,8.35-1.88-4.89-2.21-9.51-5.25-16.08-1.5ZM423.56,42.74c-4.05-7.81-10.61-13.43-16.65-19.51,3.69,1.1,6.3,3.66,9.13,5.86,4.23,3.28,7.07,7.8,10.48,12.48-4.56-15.79-22.78-28.59-40.29-28.26,5.28,2.88,11.31,2.62,15.45,6.73-3.75-1.12-7.35-2.52-11.27-3.11-9.45-1.42-9.42-1.63-11.3-.28q21.24,4.56,44.45,26.09ZM456.98,147.67c-2.34,3.92-2.76,8.74-5.69,12.14-5.87,6.82-5.29,15.43-7.14,23.34-.59,2.51.69,4.93,3,6.36,1.38.85,2.89.62,4.1-.61,1.91-1.94,1.93-4.31.83-6.46-1.67-3.28-1.38-6.32.01-9.54.53-1.22,1.47-2.56.46-4.28-.63.37-1.14.76-1.73.98-.5.2-1.19.69-1.62-.67,6.97-5.36,7.9-13.14,7.78-21.25ZM445.72,117.3c4.36-8.85,1.23-16.39-1.17-23.98-1.11,4.29.84,8.72-1.05,13.69-3.39-6.4-1.64-12.81-2.78-19.65-3.14,11.12-.27,20.31,5,29.94ZM268.14,657.39c.85,1.46,1.29,2.55,2.02,3.39.73.84.29,2.92,2.37,2.45.87-5.8-.84-9.79-4.91-11.07-4.11-1.3-6.16,1.73-7.97,4.43-1.96,2.93-1.28,5.65,1.98,7.52,1.87-2.26,3.48-4.75,6.51-6.71ZM421.64,21.15c-5.81-10.96-24.01-17.74-33.75-11.98,13.16-1.32,24.19,3.29,33.75,11.98ZM254.63,664.36c-.08,9.26-3,18.35-1.79,27.69,2.66-9.1,3.67-18.31,1.79-27.69ZM382.08,551.02c-5.87-3.74-12.59-2.41-18.96-3.28,6.02,2.66,12.27,4.14,18.96,3.28ZM581.68,643.69c1.4,3.74,2.8,7.47,4.25,11.35,5.17-5.19,5.36-9.28-.15-13.93-1.58,4.38,2.47,7.94,1.55,12.06-2.03-3.14-1.64-7.33-5.65-9.48ZM282.1,688.58c1.74-1.8-1.04-4.48,1.22-6.44.2-.17.61-.09.92-.13-.08.11-.15.23-.36.54-3.49-2.45.53-7.26-2.93-9.66,1.86,7.79-1.9,15.57-.17,24.18,1.78-2.89.32-5.38,1.88-7.38,1.17-.44,2.54.74,3.71-.16-1.06-1.8-2.81.58-4.27-.96ZM450.37,146.87c2.56-2.15,4.06-5.84,8.29-4.98.08-2.99.36-6-2.7-6.54-2.66-.46-3.58,2.4-4.44,4.53-.85,2.12-2.01,4.21-1.15,6.99ZM437.62,35.28c-1.71-8.91-7.34-15.04-14.51-20.03,5.02,6.5,10.72,12.51,14.51,20.03ZM599.41,647.41c-1.08-1.32-2.61.28-3.15-1.29.36-1.13,2.51-.33,2.12-2.49-2.92-.81-.36-9.59-7.53-5.07.83,4.01,2.12,7.84,4.8,11.32,1.19-.78,2.36-1.55,3.75-2.47ZM440.84,468.59c6.35,1.32,1.82,5.21,1.79,8.49,4.45-1.75,2.53-5.22,3.1-7.89,1.5-.79,3.03-1.68,4.84-1.46,1.47,2.53-.76,4.98.15,7.43,1.01-2.85,2.59-5.57,1.56-8.95-1.84,1.22-3.67.72-5.45.67-2.04-.06-3.96.29-5.99,1.7ZM373.84,55.75c-9.39,2.68-16.55,9.58-16.7,15.37,4.39-5.91,9.91-10.34,16.7-15.37ZM548.61,657.86c-.77,5.61-.03,10.91,3.38,16.8.63-6.74-.19-11.99-3.38-16.8ZM394.29,548c-.13-2.53-1.48-3.72-3.44-3.85-2.46-.17-2.93,1.83-2.87,3.68.06,2.08,1.35,3.38,3.52,3.25,2.02-.13,2.59-1.7,2.79-3.07ZM434.06,563.79c.18-1.63-.55-2.61-2.21-2.53-1.9.08-3.23,1.24-3.32,3.08-.08,1.61,1.32,2.09,2.78,2.22,2.04.17,2.56-1.11,2.75-2.77ZM302.23,44.07l14.5-6c-5.45.53-10.65,1.63-14.5,6ZM411.07,560.16c.04,2.37,1.62,3.28,3.27,3.27,1.79,0,2.22-1.94,2.43-3.32.28-1.79-1.15-2.79-2.7-2.91-2.07-.16-2.79,1.39-3,2.97ZM376.84,14.06h-11.82c3.95.74,7.83,2.95,11.82,0ZM294.98,135.4c3-1.21,4.56.56,5.96,3.37,1.91-5.29-3.33-6.3-3.63-9.76-2.53,1.41-2.58,3.34-2.32,6.4ZM481.47,540.96c6.23,2.21,7.82,1.08,6.97-4.53-2.06,1.67-4.88,2.03-6.97,4.53ZM635.13,612.35c4.31,1.11,8.61,2.22,12.92,3.33-3.8-2.95-8.02-4.37-12.92-3.33ZM364.73,55.81c-6.22,3.53-9.06,6.86-9.22,10.96,3.12-3.71,6.01-7.15,9.22-10.96ZM328.48,23.25c-6.74.92-10.08,2.8-11.76,6.36,3.78-2.04,7.32-3.96,11.76-6.36ZM355.64,15.12c-5.78-.94-7.25-.47-10.19,2.61,3.63-.93,6.91-1.77,10.19-2.61ZM449.18,115.57c1.97-5.42,2.26-9.77,0-14.11v14.11ZM546.25,671.74c-.42-3.22-.83-6.44-1.25-9.66-1.29,3.43-1.53,6.73,1.25,9.66ZM438.5,468.4c-3.6,2.5.76,6.56-1.22,9.38,3.47-2.52-.37-6.48,1.22-9.38ZM601.86,643.69c-.68-3.31-.7-6.95-4.14-10.17.08,4.5,1.16,7.66,4.14,10.17ZM206.86,497.24c-1.62-.03-2.59,3.91-4.32.23-.78,1.92-.74,3.31.28,6.1.49-3.45,4.88-2.31,4.05-6.33ZM243.67,414.27c4.83,2.3,7.63,1.62,9.91-2.81-3.55.92-6.91,1.27-9.91,2.81ZM268.46,682.95c-1.82,3.93-1.53,7.76-1.04,11.61.28-3.73,2.04-7.32,1.04-11.61ZM305.96,52.47c-2.73,3.48-3.11,6.41-2.86,9.54.81-2.71,1.62-5.41,2.86-9.54ZM335.42,137.06c-1.26-2.38-2.11-4-3.01-5.7-1.43,1.08-3,1.62-3.8,3.18,1.79,1.79,4.19,1.28,6.81,2.52ZM197.59,503c2.89-1.3,4.5-2.49,2.46-5.29-2.79.8-3.01,2.5-2.46,5.29ZM346.56,71.56c-2.13.84-3.99,1.53-4.88,3.62,2.34-.28,6.01,1.5,4.88-3.62ZM470.17,341.12c-2.16,2.46-2.71,4.08-.81,6.44,1.92-1.85,1.58-3.58.81-6.44ZM638.36,634.45c-2.93.12-5.82-.22-8.72-.49,2.79,1.6,5.84.06,8.72.49ZM377.97,491.58c-2.41,3.04-1.56,4.66.19,6.57,1.25-2.39-.79-3.99-.19-6.57ZM263.84,693.19c2.85-3.27,1.95-5.91,1.59-8.47-.45,2.38-.89,4.76-1.59,8.47ZM652.54,636.04c1.78,3.08,3.09,1.54,4.33.73.15-.1.05-.57.08-1.12-1.24.11-2.43.22-4.4.39ZM275.29,658.68c-1.91,2.31-1.54,3.96.09,6.1.48-2.23.8-3.91-.09-6.1ZM162.21,498.3c-3.63-1.83-4.39.29-6.05,3.1,2.48-1.27,3.99-2.05,6.05-3.1ZM585.02,660.22c-1.4.69-3.16,1.4-1.35,3.06.46-1.04.9-2.05,1.35-3.06ZM128.49,546.87c-3.18.45-3.52,2.02-3.57,4.53,2.14-1.15,3.05-2.36,3.57-4.53ZM469.91,349.46c-1.42,1.67-1.94,2.94-.82,4.61,1.88-1.22,2.27-2.47.82-4.61ZM471.38,362.11c1.71-1.93,1.29-3.7,1.24-5.82-1.55,1.8-1.99,3.42-1.24,5.82ZM440.85,482.86c1.8-.1,2.93-.33,3.36-1.82-1.59-.58-2.43.22-3.36,1.82ZM467.3,404.4c-.69,1.23-1.9,2.39-.97,4.29,1.33-1.31,1.63-2.65.97-4.29ZM195.6,503.34c.52-1.97,1.4-3.6-1.04-4.6-.85,1.64-1.08,3.04,1.04,4.6ZM262.34,703.42c.1.93-2.52.94-.77,2.43.94-.49,1.68-1.06.77-2.43ZM641.24,630.44c-1.32.01-3.36-2.03-3.95,1.06,1.78.69,2.7-.87,3.95-1.06ZM260.04,412.36c-2.95.31-4.34,1.23-5.05,4.81,2.37-1.52,4.26-1.72,5.05-4.81ZM435.43,530.59c-1.06,2.47-2.32,3.53-1.17,5.45.97-1.33,1.82-2.43,1.17-5.45ZM437.63,98.09c-.11,1.38-1.1,2.79.21,4.63-.08-1.88-.14-3.26-.21-4.63ZM450.8,553.93c-.61-.18-.89.16-.95.69-.08.68.09,1.36.9,1.39.34.01.9-.38,1.01-.71.26-.76-.27-1.17-.96-1.36ZM280.53,663.94c-.55.82-.64,1.48-.13,2,.12.12.72-.22,1.1-.35-.31-.52-.61-1.04-.97-1.65ZM353.32,260.79c-.09.31-.28.63-.25.93.07.8.49,1.45,1.15.52.41-.58-.13-1.23-.89-1.44ZM428.54,79.9c1.41.32,2.37.2,2.32-1.58-1.11-.05-1.88.35-2.32,1.58ZM466.37,412.87c-.58,1.09-.9,1.88.12,2.54.89-.77,1.21-1.48-.12-2.54ZM579.65,662.58c-.24.16-.55.27-.67.48-.08.13.11.43.18.65.25-.11.66-.16.72-.33.08-.21-.14-.52-.23-.8ZM467.48,410.07c-.08.13-.41.6-.58,1.12-.03.09.63.59.95.58.73-.03,1.04-.66.98-1.3-.03-.35-.25-.95-1.35-.4ZM285.1,696.62c.7.02.8-.47.74-.93-.03-.21-.38-.54-.56-.52-.49.04-.98.28-.79.9.07.23.42.38.62.55ZM281.32,699.29c-.18-.22-.32-.54-.53-.61-.16-.05-.55.19-.61.37-.13.42-.1.91.55.77.22-.05.39-.34.59-.53ZM228.17,495.06c-.79-.55-1.01-.83-1.2-.81-.38.04-1.04-.46-1.04.35,0,.11,1.03.22,2.24.46ZM280.27,668.43c.62.6,1.2.72,1.8-.07-.67-.4-1.25-.52-1.8.07ZM319.31,75.41c.63-.53.68-.98,0-1.57v1.57ZM368.63,520.34c-.38-.05-.69-.19-.92-.1-.6.22-.53.71-.09.94.14.07.62-.51,1.01-.84ZM318.18,496.7c1.91.39,2.23-.42,2.02-1.9-1.47.04-1.87.79-2.02,1.9ZM255.38,416.6c-.32-.49-.37-1.27-1.32-.98-.65.2-1.23.51-1.13,1.21.05.32.64.66,1.04.79.84.26,1.05-.51,1.41-1.02ZM391.44,595.74c.27-.07.53-.14.8-.22-.1-.09-.21-.27-.31-.27-.26,0-.51.1-.77.16.09.11.18.21.28.33ZM242.51,604.95c.93-.55,1.11-1.21.27-1.94-.16-.14-.63-.16-.76-.04-.96.93.3,1.32.49,1.98ZM175.83,503.66c-.07-.11-.14-.23-.21-.34-.11.08-.28.15-.3.24-.02.1.12.22.19.33.11-.08.21-.16.32-.24ZM300.68,44.93c.09-.1.26-.21.26-.32,0-.11-.17-.21-.27-.32-.11.15-.21.3-.32.45.1.06.2.11.32.18Z"/><path class="b" d="M230.72,376.66c-11.8-3.95-23.62-7.85-35.39-15.54,7.19,2.6,13.04,4.61,18.81,6.83,5.84,2.25,11.69,4.56,16.58,8.71Z"/><path class="b" d="M259.9,430.44c-12.07,8.31-20.41,21.55-34.89,26.93,12.81-7.45,21.45-20.13,34.89-26.93Z"/><path class="b" d="M199.95,466.93c-1.62,7.11-4.68,13.61-8.58,19.75,2.93-6.54,3.39-14.15,8.69-19.67,0,0-.11-.08-.11-.08Z"/><path class="b" d="M217.9,395.35c7.1.82,13.61,3.21,19.52,7.26-6.51-2.42-13.01-4.84-19.52-7.26Z"/><path class="b" d="M220.48,448.62c-.73-2.76,1.8-3.07,3.2-4.15,2.71-2.09,5.52-4.06,8.45-5.89-3.13,4.19-8.1,6.29-11.65,9.99v.04Z"/><path class="b" d="M177.9,321.27c-4.08-1.58-8.28-3.22-9.13-8.62,3.2,3.02,6.17,5.82,9.13,8.62Z"/><path class="b" d="M220.48,448.58c-1.14.43-2.28.86-4.66,1.76,2.2-1.38,2.71-3.5,4.66-1.72,0,0,0-.03,0-.03Z"/><path class="b" d="M200.58,464.05c1.34,1.3.88,2.21-.64,2.88,0,0,.11.08.11.08.17-.96.34-1.93.5-2.9,0,0,.03-.07.03-.07Z"/><path class="b" d="M200.56,464.12c.44.12.88.25,1.32.37-.17.19-.35.39-.52.58-.26-.33-.52-.66-.77-1.01,0-.01-.02.06-.02.06Z"/><path class="b" d="M366.5,643.04c9.41-.11,18.12-5.01,27.8-4.57-.57-.3-1.14-.6-1.7-.9,5.49,2.31,10.78-.23,16.01.03,12.25.6,23.97-3.66,36.06-4.61,13.59-1.07,26.47-5.34,39.69-8.05,7.66-1.57,15.2-3.27,22.38-6.38.79,3.36-2.02,2.73-3.69,3.1-4.37.96-7.14,3.04-5.74,7.96.72,2.54-1.22,3.25-2.54,4.26-4.45,3.43-9.44,6.01-15.89,8.88,10.67,2.22,20.13.23,29.37,1.74-47.23-.14-94.52,5-141.76-1.44Z"/><path class="b" d="M327.46,612.55c6.06-3.68,12.96-5.05,19.68-6.99.37,1.49-.62,4.36,2.53,2.58,1.76-.99,3.33-2.2,5.56-1.7.87,1.12-1.17,1.35-.81,2.34.33.06.73.26.97.14,6.7-3.22,13.74-.83,20.6-1.33,10.76-.8,21.21-3.23,32.63-7.14-16.16,10.12-68.32,19.39-81.16,12.1ZM340.6,611.05q-2.92.16-5.1,1.71,2.91-.26,5.1-1.71Z"/><path class="b" d="M192.4,575.53c.69,19.71.17,39.59,8.1,58.3-8.55-18.62-10.88-38.1-8.1-58.3Z"/><path class="b" d="M567.5,558.46c12.97-6.38,26.74-10.54,40.6-14.47-12.89,6.6-27.05,9.67-40.6,14.47Z"/><path class="b" d="M240.47,632.39c-5.5-10.48-11.45-20.8-11.57-33.14-1.17-.23-1.07.62-1.13,1.14-.05.47.1,1,.3,1.44,4.37,9.96,8.77,19.92,13.16,29.88-.25.23-.5.45-.76.68Z"/><path class="b" d="M380.12,674.87c-3.08-.33-6.15-.67-9.95-1.08,5.99-5.01,8.24-11.1,8.69-18.09,1.87,6.07-2.14,11.16-2.93,16.62,1.52,1.61,2.46-.44,3.63-.33,1.06.87-1.17,2.17.45,2.95,0,0,.11-.09.11-.09Z"/><path class="b" d="M226.9,630.98c-4.25-9.58-7.21-19.53-8.46-29.96,3.04,9.83,6.07,19.66,9.11,29.49-.22.15-.43.31-.64.47Z"/><path class="b" d="M316.47,603.61c3.22.02,5.24-4.33,9.73-1.81-4.58,1.17-7.71,5.35-12.95,1.71-1.64-1.13-5.15.98-6.5-2.36l-.07.09c2.67,1.85,5.9-1,8.55,1.03-.65.5-2.33.53-1.31,1.86.77,1,1.71-.2,2.55-.52Z"/><path class="b" d="M601.9,549.99c-6.27,4.66-13.82,6.07-21.36,7.5,7.12-2.5,14.24-5,21.36-7.5Z"/><path class="b" d="M619.96,533.6c-5.89-.23-11.57.92-17.2,2.47,6.56-3.47,10.99-4.1,17.2-2.47Z"/><path class="b" d="M343.78,648.91c-.23,4.43-.69,8.83-2.56,13.09.43-4.41.85-8.83,1.28-13.24.43.05.86.1,1.29.15Z"/><path class="b" d="M357.35,669.72c2.12-4.54,3.41-9.38,5.31-13.97-.51,5.17-2.05,9.94-5.31,13.97Z"/><path class="b" d="M333.29,604.14c-5.04,1.77-10.09,3.55-15.13,5.32-.16-.44-.32-.89-.48-1.33,5.03-1.82,10.05-3.65,15.08-5.47.18.49.36.99.53,1.48Z"/><path class="b" d="M371.04,658c-.97,10.85-2.03,14.05-5.27,14.3,4.12-4.1,1.87-10.13,5.39-14.2l-.12-.11Z"/><path class="b" d="M367.34,655.02c-1.04,5.25-1.44,10.71-4.62,15.28,1.65-5.06,3.01-10.21,4.62-15.28Z"/><path class="b" d="M306.75,601.14c-.97-2.15-3.4.1-4.71-1.6,3.2-1.16,6.37-.63,10.01-1.04-1.59,2.37-4.79-.3-5.36,2.72,0,0,.06-.08.06-.08Z"/><path class="b" d="M349.72,665.72c.31-4.22,1.41-8.32,1.64-12.55.46,4.33-.1,8.51-1.64,12.55Z"/><path class="b" d="M321.74,632.09c2.28,3.89.47,7.76-.3,11.64-.31-3.88.68-7.75.3-11.64Z"/><path class="b" d="M347.46,651.57c1.13,3.81-2.04,7.2-1.08,9.69,1.03-2.29.58-6.04,1.08-9.69Z"/><path class="b" d="M615.71,539.61c-3.05.39-6.1.79-9.7,1.25,3.39-2.09,6.51-2.37,9.7-1.25Z"/><path class="b" d="M529.56,577.86c-1.07,1.17-3.54,2.44-6.75,2.87,2.42-2.34,5.14-2.96,6.75-2.87Z"/><path class="b" d="M317.16,638.21c.31-3.09.63-6.17,1.01-9.89,2.14,3.95-.37,6.83-1.01,9.89Z"/><path class="b" d="M329.52,638.49c2.13,3.79-.03,7.36-.6,11.01.21-3.66.42-7.32.63-10.98l-.03-.03Z"/><path class="b" d="M398.99,666.96c-.24-2.02.4-4.1-.82-5.85,1.43-1.12,2.37-.33,4.25.42-3.83.62-1.38,4.05-3.53,5.33,0,0,.1.09.1.09Z"/><path class="b" d="M330.77,607.64c1.84-1.98,4.7-1.67,6.88-2.91-1.44,2.59-4.19,2.62-6.62,3.27,0,0-.26-.35-.26-.35Z"/><path class="b" d="M354.2,659.73v-5.58c2.29,2.21,1.25,3.76,0,5.58Z"/><path class="b" d="M329.55,638.52c-2.9.59-1.04,4.1-3.4,5.16-.15-2.22,1.29-4.26.7-6.38,1.59-.74,1.15,2.07,2.67,1.19,0,0,.04.03.04.03Z"/><path class="b" d="M464.1,671.89c-1.1,1.7-.03,4.49-3.12,5.49.04-2.61.23-4.72,3.12-5.49Z"/><path class="b" d="M332.43,652.6c-.9-2.47.69-3.65,1.14-5.14-.37,1.66-.74,3.33-1.14,5.14Z"/><path class="b" d="M329.14,609.14c-1.48,1.39-2.92,2.87-5.75,2.82,1.3-2.45,3.26-2.92,5.2-3.42.19.2.37.39.55.6Z"/><path class="b" d="M374.18,658.53c-.45-1.59-1.01-2.95,1.01-4.04.92,1.86-.34,2.74-1.01,4.04Z"/><path class="b" d="M408.59,665c-1.2.18-2.7,2.02-3.91-.06,1.39-1.97,2.64-.24,3.91.06Z"/><path class="b" d="M339.2,646.52c1.66,2.55-.64,3.8-.26,6.68-1.42-3.11-.03-4.54.26-6.68Z"/><path class="b" d="M458.92,673.75c-.04,1.32-.67,1.97-1.94,1.93-.87-.99-.22-1.58.37-2.04.46-.36,1.1-.64,1.57.11Z"/><path class="b" d="M175.57,604.7c.41,2.09.85,3.98-.08,5.96-.92-2.17-.5-4.16.08-5.96Z"/><path class="b" d="M620.97,526.27c-2.16.18-3.71.31-5.27.45-.01-.15-.03-.3-.04-.45h5.31Z"/><path class="b" d="M355.65,662.7c-.71.85.33,2.26-.99,2.95-1.53-1.69,1.52-1.63,1.12-2.85l-.13-.1Z"/><path class="b" d="M618.86,578.79c.78,1.96-1.25,1.64-2.05,2.52.22-1.37.91-2.11,2.13-2.38l-.07-.14Z"/><path class="b" d="M629.12,570.13c-.61,1.39-1.64,2.33-3.36,3.03-.2-2.25,1.53-2.95,2.69-4.01.22.32.45.65.67.97Z"/><path class="b" d="M357.69,660.73c-1.4-1.85.22-3.02.47-5.34,1.44,2.7-.9,3.71-.47,5.34Z"/><path class="b" d="M618.93,578.93c.66-1.69,2.14-2.63,3.46-3.71.16.27.35.51.56.73-1.16,1.24-1.53,3.62-4.09,2.84,0,0,.07.14.07.14Z"/><path class="b" d="M403.76,668.35c.44,2.22.38,3.29-1.23,3.69-.38-1.2.51-1.94,1.23-3.69Z"/><path class="b" d="M202.76,639.13c-1.11-1.14-2.15-2.31-1.55-4.15,1.58.63,1.75,2.16,2.4,3.34-.28.27-.57.54-.85.81Z"/><path class="b" d="M325.56,648.24c-.72-1.35-.84-2.26-.14-3.19.96.84.52,1.78.14,3.19Z"/><path class="b" d="M639.97,587.98c-.26-1.13.15-1.85,1.85-2.24-.54,1.12-.24,2.32-1.93,2.14l.09.1Z"/><path class="b" d="M152.27,577.66v-4.2c1.24,1.77.62,2.98-.02,4.21-.01.01.02,0,.02,0Z"/><path class="b" d="M152.55,614.29c.3.71.79,1.39.08,2.2-.74-.73-.69-1.44-.08-2.2Z"/><path class="b" d="M330.7,667.12h2.25c-1.04.84-1.59.46-2.12-.12,0,0-.13.12-.13.12Z"/><path class="b" d="M383.36,596.5h-1.21s0-.1,0-.15h1.21s0,.1,0,.15Z"/><path class="b" d="M336.16,646.69c.08-.52.17-1.05.28-1.75.98.82.61,1.38-.28,1.75Z"/><path class="b" d="M334.45,643.43c.69,1.05.57,1.7-.06,2.3-.79-.68-.39-1.37.06-2.3Z"/><path class="b" d="M371.16,658.11c-.05-.92-.09-1.84-.16-3.18,1.44,1.39,1.2,2.26.04,3.07,0,0,.13.11.13.11Z"/><path class="b" d="M366.97,555.78c-1.23.69-2.15.32-3.02-.41,1.19-1.51,2.15-.35,3.02.41Z"/><path class="b" d="M332.5,643.41c-.67-.88-.93-1.68.2-2.39,1.19.91.06,1.59-.2,2.39Z"/><path class="b" d="M325.01,638.38c-.08.58-.16,1.16-.26,1.88-.94-.75-.72-1.4.26-1.88Z"/><path class="b" d="M309.08,654.97c-.75-.35-.36-.69.02-1,.08-.06.41.03.42.09.11.47.23,1-.58.83,0,0,.14.08.14.08Z"/><path class="b" d="M498.88,656.86c.32-1.06,1.2-1.2,1.72-.51.34.46-.54.94-1.15,1.12-.18-.21-.37-.42-.57-.62Z"/><path class="b" d="M499.45,657.47c-.72.27-1.44.54-2.16.8-.35-.29-.71-.58-1.06-.87.62-1.44,1.64-.99,2.65-.55.2.2.39.4.57.62Z"/><path class="b" d="M503.78,537.25c-.89.3-1.77.59-2.66.89-.22-.32-.43-.64-.65-.95,1.13-.09,2.26-1.67,3.37.02l-.06.04Z"/><path class="b" d="M623.24,574.37c.51-.54,1.02-1.07,1.64-1.71.82,1.51,0,1.94-.93,2.3-.21-.22-.45-.42-.7-.59Z"/><path class="b" d="M625.43,580.52c.15-.65-1.13-1.39.3-2.11-.12.8-.21,1.45-.31,2.11,0,0,.01,0,.01,0Z"/><path class="b" d="M622.59,580.41c.95.03,1.9.07,2.84.1,0,0-.01,0-.01,0-.94-.06-1.87-.12-2.81-.18l-.03.07Z"/><path class="b" d="M637.02,591.99c-1-1.07.45-1.76.41-2.69l-.03-.08c1.31,1.17.95,2.03-.49,2.7,0,0,.12.07.12.07Z"/><path class="b" d="M373.56,661.51c-.47-.53-.6-.94,0-1.5v1.5Z"/><path class="b" d="M253.77,609.11c-.92-.42-.96-1.12-.6-2.03,1.08-.24,1.04.75,1.39,1.3-.27.24-.53.49-.8.73Z"/><path class="b" d="M328.59,608.54c.73-.3,1.45-.59,2.18-.89,0,0,.26.35.26.35-.17,1.14-1.09,1.05-1.89,1.14-.18-.2-.36-.4-.55-.6Z"/><path class="b" d="M325.13,635.16c.23.11.71.29.69.34-.11.41-.32.79-.49,1.18-.16-.28-.3-.57-.49-.82-.29-.39-.22-.6.29-.7Z"/><path class="b" d="M558.83,637.07c-.06-.21-.13-.42-.19-.64-.07.04-.14.07-.2.11.14.2.28.41.42.61,0,0-.03-.08-.03-.08Z"/><polygon class="b" points="549.63 639.59 549.35 639.69 549.41 639.39 549.63 639.59"/><path class="b" d="M503.84,537.21c-.37-.15-.74-.31-1.11-.46.09-.11.19-.23.28-.34.24.28.48.57.74.85.03,0,.09-.04.09-.04Z"/><path class="b" d="M519.3,651.4l-.03-.24s.11.16.12.15c0,0-.09.09-.09.09Z"/><path class="b" d="M633.32,566.81c-.27-.31-.53-.63-.8-.94.2-.16.4-.32.6-.48.08.45.15.9.23,1.35l-.03.06Z"/><path class="b" d="M633.35,566.74c-.5-.13-1.22.23-1.38-.62-.02-.11.14-.36.25-.38.8-.13,1.03.38,1.1,1.05,0,0,.03-.06.03-.06Z"/><path class="b" d="M629.22,568.42c.43-.38.81-1.27,1.48-.63.77.74-.19.96-.64,1.29-.28-.22-.56-.44-.84-.66Z"/><path class="b" d="M497.29,658.28c-.33.41-.51,1.26-1.25.69-.66-.5-.06-1.05.19-1.56.35.29.71.58,1.06.87Z"/><path class="b" d="M630.07,569.07c-.32.35-.63.7-.95,1.05-.22-.32-.45-.65-.67-.97.26-.24.52-.49.78-.73.28.22.56.44.84.66Z"/><path class="b" d="M631.49,574.55l-.25-.94h.02c.08.3.16.61.24.91,0,0,0,.03,0,.03Z"/><path class="b" d="M630.52,575.5c-.02-.41-.21-.92-.04-1.22.49-.83.65.22,1.01.26,0,0,0-.03,0-.02-.69-.06-1.25.02-.98.95,0,0,0,.03,0,.03Z"/><path class="b" d="M355.78,662.8c.23-.2.45-.39.68-.59.23.95-.63.17-.8.49,0,0,.12.1.12.1Z"/><path class="b" d="M623.94,574.95c-.03.63-.37.95-.99,1-.22-.22-.4-.47-.56-.73.28-.29.57-.57.85-.86.25.17.49.36.7.59Z"/><path class="b" d="M629.47,576.58c-.09-.42-.68-.7-.15-1.29.62-.69.79.16,1.19.21,0,0,0-.03,0-.03-.7,0-1.28.12-1.05,1.05v.05Z"/><path class="b" d="M629.47,576.52c-.46.22-.92.43-1.38.65l.09.16c-.09-.39-.39-.96-.23-1.13.62-.71,1.08-.08,1.53.37,0,0,0-.05,0-.05Z"/><path class="b" d="M628.08,577.17c-.4.16-.8.32-1.2.48.07-.27.06-.66.24-.8.53-.42.77.1,1.04.46,0,.02-.08-.15-.08-.15Z"/><path class="b" d="M622.61,580.34l-.88,1.46-.08.18c.96-.12.87-.88.95-1.56,0-.02.02-.09.02-.09Z"/><path class="b" d="M621.73,581.81l.18.22s-.26-.06-.26-.05c0,.01.08-.17.08-.17Z"/><path class="b" d="M639.88,587.88c-.11,1.33-.75,1.11-1.5.53.01.01.09.08.09.08.5-.17,1-.35,1.5-.52,0,0-.09-.1-.09-.1Z"/><path class="b" d="M637.43,589.3c.63.13.96-.17,1.07-.78-.02-.02-.1-.09-.11-.1.3.47.72,1-.06,1.37-.18.08-.6-.34-.92-.55-.01-.02.02.06.02.06Z"/><path class="b" d="M578.11,415.28c6.89,3.64,12.7,6.97,18.76,12.15-12.04,1.93-22.78,2.23-33.41-.72-2.03-.56-5.25-1.06-4.98-3.97.25-2.81,2.96-3.53,5.62-3.91,2.96-.43,5.89-.93,8.9-.8,2.17.1,4.41.29,5.12-2.75Z"/><path class="b" d="M569.13,474.75c2.21-1.92,4.47-4.51,7.53-.41-3.05-3.17-4.79,1.26-7.53.41Z"/><path class="b" d="M591.81,449.63q2.22-.93,2.23-4.24c1.58,1.97-.22,3.89.97,5.27-1.74.89-2.27-.6-3.21-1.03Z"/><path class="b" d="M542.38,502.55c-.13-1.99-3.12-1.79-2.99-4.79,2.98.63,4.09,1.88,2.98,4.83,0,.01.01-.04.01-.04Z"/><path class="b" d="M507.87,418.99c.84-2.39,1.96-4.61,4.11-6.12-.17,2.85-1.35,5.02-4.11,6.12Z"/><path class="b" d="M500.72,286.72c-.41.36-.75.91-1.1.92-.86.03-.96-.7-.78-1.34.11-.39.49-.69.75-1.04.36.46.72.93,1.13,1.46Z"/><path class="b" d="M492.16,459.85c-1.27,1.58-1.49,4.58-4.73,3.54,0,0-.03.03-.03.03,1.55-1.18,3.1-2.37,4.66-3.55,0,0,.1-.02.1-.02Z"/><path class="b" d="M577.14,470.96c3.46-1.7,2.5,1,3.69,1.96-1.85.01-2.39-1.07-3.69-1.96Z"/><path class="b" d="M602.56,480.62c-.19.45-.38.9-.57,1.35-.36.4-.72.42-1.06-.02-1.01-1.9.33-3.11,1.25-4.48,1.29.96.41,2.11.39,3.16Z"/><path class="b" d="M565.75,406.61h-2.82c0-.07,0-.14,0-.21h2.67c.05.07.1.14.15.21Z"/><path class="b" d="M521.86,397.23c.51-.47,1.02-.94,1.78-1.64.14,1.52-.69,1.74-1.78,1.64Z"/><path class="b" d="M535.97,501.03c-1.15-.8-2.44-1.55-1.04-3.18,1.14.8,1.52,1.85,1.04,3.18Z"/><path class="b" d="M589.55,447.04c.1.29.26.56.24.81-.01.15-.32.27-.5.41-.1-.27-.28-.54-.27-.8,0-.14.33-.27.53-.41Z"/><path class="b" d="M487.43,463.4c.1.42.19.85.29,1.27-.06,0-.12.02-.18.03-.05-.42-.09-.85-.14-1.27,0,0,.03-.03.03-.03Z"/><path class="b" d="M492.06,459.88l-.05-.13s.12.12.14.11-.08.01-.08.01Z"/><path class="b" d="M551.65,497.93l.23-.03s-.14.24-.15.23-.09-.2-.09-.2Z"/><path class="b" d="M385.57,207.35c.85.68,1.47,1.17,2.88,2.3-9.15,2.66-17.47,1.55-26.15.14,1.34-1.33,3.22-.32,4.24-2.34-7.87-2.55-14.07-8.26-21.77-11.19-2.36-2.33-2.77-5.24.38-8.73.2,4.3,2.85,3.82,5.5,3.73,5.64-.19,11.19-1.5,16.74-1.72,8.4-.33,16.85.42,25.28.87,2.94.16,5.85,1,8.79,1.15,1.85.1,3.64-.64,3.94-3.46,2.55,3.04,2.11,5.62.93,7.73-4.87-.48-6.45,3.79-9.39,5.65-3.51,2.22-7.13,4.22-11.35,5.87ZM396.51,197.74c-13.88,3.63-27.84.19-43.13.17,14.14,8.59,34.93,8.36,43.13-.17ZM352.71,194.52c14.98,1.73,29.98,3.01,44.79-1.08-14.94-.43-29.91-1.73-44.79,1.08Z"/><path class="b" d="M354.46,164.39c-.23,1.47-.56,2.72-.59,3.98-.13,4.65,2.49,6.59,6.98,4.94,3.67-1.35,6.55-1.12,9.13,2.24,3.2,4.15,5.25,4.38,8.81.61,3.43-3.64,6.6-5.3,11.78-3.17,3.59,1.47,4.16-2.28,4.39-4.89.12-1.4-.59-2.88-.94-4.35,1.18-.98,2.29.31,2.42.58,1.72,3.74-.5,7.1-1.5,10.46-.76,2.56-3.41,2.75-5.91,2.24-2.05-.42-4.23-.13-5.65,1.27-5.14,5.05-10.69,3.11-16.13,1.09-2.93-1.09-5.49-2.26-8.92-1.77-4.71.68-5.25-3.86-6.17-6.99-.61-2.1-1.72-5.23,2.3-6.23Z"/><path class="b" d="M364.88,154.92c1.22-1.76,1.94-3.93,4.07-4.94.16.21.33.4.51.59-1.3,1.66-2.61,3.32-3.91,4.98-.22-.22-.44-.42-.67-.63Z"/><path class="b" d="M363.94,156.97c-.36,1.81-1.63,2.96-2.95,4.08,0,0,.09.14.09.14-.57-2.52.84-3.6,3-4.14l-.14-.08Z"/><path class="b" d="M360.98,163.04c1.53.95,1.41-1.07,2.24-1.23-.58.53-.54,2.36-2.15,1.14l-.1.09Z"/><path class="b" d="M361.08,162.95c-.51-1.01-1.31.11-2.22-.36.67-.75.49-2.28,2.22-1.41,0,0-.09-.14-.09-.14.08.67-1.1,1.32,0,2,0,0,.1-.09.1-.09Z"/><path class="b" d="M372.39,147.07c-1.14.21-.85,2.39-2.54,1.85l.13.09c.12-1.49.9-2.08,2.37-1.73l.04-.21Z"/><path class="b" d="M416.28,216.21c-1.11-1.11-.31-1.89-.01-2.72,1.05.76,1.05,1.58.01,2.72Z"/><path class="b" d="M364.08,157.05c-1-1.19-.11-1.66.8-2.13.23.2.45.41.67.63-.5.52-.59,1.5-1.61,1.42,0,0,.14.08.14.08Z"/><path class="b" d="M381.59,164.08c-.2-.21-.39-.42-.59-.62.22-.18.54-.56.65-.51.32.15.55.48.81.73-.28.13-.57.26-.87.4Z"/><polygon class="b" points="363.42 164.47 363.49 164.73 363.44 164.47 363.42 164.47"/><path class="b" d="M364.65,163.72c.19,1.23-.52.99-1.23.75,0,0,.01,0,.01,0,.45-.21.9-.41,1.35-.62l-.13-.13Z"/><path class="b" d="M364.79,163.85c.22-.18.44-.36.66-.53.16.92-.48.34-.79.41,0,0,.12.12.12.12Z"/><path class="b" d="M369.84,148.92c.92.79-.02,1.15-.38,1.65-.18-.19-.35-.38-.51-.59.05-.63.28-1.08,1.03-.97,0,0-.13-.09-.13-.09Z"/><path class="b" d="M372.34,147.28c-.06-.08-.13-.17-.19-.25.08.02.16.04.23.05,0,0-.04.2-.04.2Z"/><path class="b" d="M66.9,691.83c-.31-.8,1.43-.89.63-1.76-.16-.17-.82.13-1.25.21l.09.13c-1.02-.98-.37-1.25.59-1.46,10.92-2.34,20.77-6.49,27.96-15.65.77-.98,1.92-1.94,2.72-3.1,1.63.28-.45,2.04.99,2.47.9-1.02,1.43-2.1,1.24-3.48-1.18-.17-1.14,1.75-2.37,1.07,1.46-5.47,2.93-10.93,4.39-16.4l-.13-.12c1.29,5-1.38,9.69-1.69,14.66,4.82-.46,1.1-5.28,4.05-6.42,0,0-.14-.07-.14-.07-.11,1.91-.22,3.82-.34,5.91,1.96-.07,2.42-1.83,3.43-2.9l-.13.08c.93-.43,2.02-.77,1.07-2.14l-.06.13c1.86.75,2.17-1.79,4.65-2.06-7.89,12.37-11.39,25.88-17.09,38.46-1.45,3.2-3.44,3.45-6.55,2.08,1.77-.79,3.87-.85,4.14-3.21-2.36-1.75-3.96,1.96-6.27,1,1.3-2.54,4.67-1.42,6.17-3.45-.9-2.07-2.38-3.17-4.51-3.4,0,0,0,.01,0,.01,1.38-.34,2.48-.94,2.44-2.61.41.32.74.28.92-.23.03-.1-.12-.26-.18-.4-.21.25-.43.5-.64.74-.68-.01-1.36-.03-2.05-.04,0,0,.09.11.09.11.34-1.41.14-2.63-1.63-1.84-2.07.92-3.96,2.23-5.92,3.37-.18-.24-.38-.47-.59-.69.02-.65.03-1.31.05-1.96.22-.1.45-.19.67-.29-.18-.09-.36-.18-.54-.27,0,.21-.01.43-.02.64-2.13.31-3.48,1.95-5.17,3.01-1.28.8-2.61,2.42-4.36.68l.17.08c-1.29-2.38-2.79-.5-4.22-.21-.18-.25-.38-.48-.59-.7ZM74.11,690.56c.32.07.63.24.87.17.66-.19,1.22-.81.54-1.24-.77-.49-1.12.42-1.42,1.07Z"/><path class="b" d="M107.08,664.93c-.46-.39-1.39-.91-1.32-1.17,3.52-13.56,6.55-27.24,9.51-40.93.03,12.49-2.52,24.48-6.74,36.17-.44,1.22-1.92,2.46-.57,4,0,0,.06-.13.06-.13-1.7.04-1.45,1.06-1.07,2.14l.13-.08Z"/><path class="b" d="M104.79,655.74c1.2-5.72,2.41-11.45,3.61-17.17.95,6.02-1.72,11.45-2.25,17.23l-1.36-.06Z"/><path class="b" d="M101.9,653.86c.49-2.27.99-4.53,1.48-6.8.13,2.41.22,4.8-1.61,6.68,0,0,.13.11.13.11Z"/><path class="b" d="M140.96,538c-1.18-3.2.46-3.63,3.06-3.11-.15,1.89-1.56,2.55-3.06,3.11Z"/><path class="b" d="M85.39,693.37c0-2.47,1.39-3.4,3.67-3.36,0,0-.09-.11-.09-.1-.67,1.73-2.21,2.5-3.69,3.34l.1.12Z"/><path class="b" d="M61.42,688.55c-.93,1.49-1.33,2.18-2.36,1.92-.09-1.1.75-1.23,2.36-1.92Z"/><path class="b" d="M104.12,661.98c-1.39-1.48.25-2.66.46-3.98.34,1.37.8,2.76-.6,3.91,0,0,.14.07.14.07Z"/><path class="b" d="M66.29,690.28c-1.4.36-2.7,1.78-4.26.4l.02-.02c1.42-.26,2.77-1.69,4.32-.27.01.02-.08-.11-.08-.11Z"/><path class="b" d="M138.93,538.96c.15-1.49.57-2.43,2.12-1.04-.31,1.16-.73,2.09-2.12,1.04Z"/><path class="b" d="M77.49,692.34c.85-.13,1.69-.27,2.54-.4,0,0-.09-.13-.09-.13-.45,1.97-1.54.89-2.48.52,0,0,.03.01.03.01Z"/><path class="b" d="M85.29,693.25c-1.03.35-1.95,2.31-3.16.22l.07-.02c1.07.41,2.06-1.29,3.17-.1.01.02-.09-.11-.09-.11Z"/><path class="b" d="M143.92,534.99c-.25-.99-.13-1.61,1.11-1.11.7,1.44-.05,1.43-1.11,1.11Z"/><path class="b" d="M137.94,539.97c-.36-1.08,0-1.45,1.09-1.09.02.38.04.77.06,1.15-.38-.02-.77-.04-1.15-.06Z"/><path class="b" d="M136.93,540.97c-.26-.99-.08-1.53,1.09-1.08.02.38.04.77.06,1.15-.38-.02-.77-.04-1.15-.06Z"/><path class="b" d="M133.27,575.3c.11-.12.21-.23.3-.33.1.2.23.4.27.61.02.08-.17.2-.26.3-.1-.2-.21-.4-.31-.59Z"/><path class="b" d="M62.03,690.68c.36.11.71.23.11.04.49.41.21.17-.09-.06,0,0-.03.03-.03.03Z"/><path class="b" d="M81.51,691.54c-.47.37-.87,1.21-1.57.27,0,0,.09.13.09.13-.22-.78.24-1.01.89-1.09.21.22.41.45.59.69Z"/><path class="b" d="M67.5,692.53c-.48.36-.97.93-1.46.08-.04-.07.56-.51.87-.77.21.22.41.45.59.7Z"/><path class="b" d="M71.55,692.66c.5.18.74.5.48,1.02-.04.08-.36.14-.44.08-.49-.4-.18-.71.14-1-.02,0-.18-.09-.18-.09Z"/><path class="b" d="M77.46,692.33c.12.52.9.91.14,1.59-.8.71-1.01-.21-1.48-.4l.07-.03c1.04.32,1.16-.42,1.3-1.14,0,0-.04-.02-.04-.02Z"/><path class="b" d="M87.73,693.6c.51-.22,1.05-.42.77-1.16,0,0,0-.01,0-.01.48,1.02.13,1.32-.89,1.05.01.01.11.13.11.13Z"/><path class="b" d="M76.12,693.51c.34.26.68.52,1.02.78-.2.18-.4.36-.59.54-.11-.45-.21-.9-.33-1.35-.01,0-.09.03-.09.03Z"/><path class="b" d="M82.13,693.47c.28.25,1.12-.02.8.75-.14.32-.61.49-.93.73,0,0,.09.12.09.12.05-.54.1-1.07.13-1.61-.02,0-.09.02-.09.02Z"/><path class="b" d="M86.16,694.49c.93.45,1.13-.45,1.58-.87-.01-.01-.12-.13-.13-.14.69,2-.96.72-1.47,1.03h.02Z"/><path class="b" d="M80.65,695.48c.36-.55.76-.98,1.44-.42,0,0-.09-.12-.09-.11.07.73-.28,1.04-.99.98-.12-.15-.24-.29-.36-.45Z"/><path class="b" d="M86.14,694.5c.28.28.57.57.85.85-1.01.4-.4-.72-.82-.87,0,0-.02.01-.02.01Z"/><path class="b" d="M81.01,695.93c-.26.26-.71.76-.74.74-.83-.68.03-.85.38-1.19.11.15.23.3.36.45Z"/><path class="b" d="M443.58,424.55c1.94-.63,3.88-1.27,5.83-1.9-1.8,1.25-3.45,3.1-5.91,1.81-.02-.02.08.09.08.09Z"/><path class="b" d="M451.35,454.16c-1.13,1.83-2.43,2.44-4.57,1.65,1.34-1.4,2.73-1.75,4.57-1.65Z"/><path class="b" d="M446.64,428.08c.73-.07,1.46-.15,2.35-.24-.79,1.6-1.47,2.4-2.31.19,0-.02-.04.06-.04.06Z"/><path class="b" d="M466.29,387.32c-.29-1.11-.37-2.16,1.35-3.6-.71,1.65-1.1,2.55-1.48,3.45l.14.15Z"/><path class="b" d="M468.41,391.87c-.72-.56-1.07-1.1-.72-1.79.09-.17.59-.34.72-.25.64.45.54,1.06,0,2.04Z"/><path class="b" d="M467.29,396.21c.17-.79.43-1.49,1.35-1.75.61,1.05.77,2.01-.37,2.81-.33-.35-.65-.7-.98-1.05Z"/><path class="b" d="M447.86,418.27c-1.07-.17-1.91,1.24-3.21.35,1-1.27,2.11-.76,3.22-.34h-.01Z"/><path class="b" d="M466.15,387.17c-.22.54-.44,1.09-.73,1.82-.74-1.39-.77-2.11.86-1.68,0,0-.13-.14-.13-.14Z"/><path class="b" d="M442.71,409.42c-.2-.29-1.13-.05-.65-.79.18-.28.69-.34,1.05-.5l-.14-.13c-.12.47-.24.95-.34,1.43.02,0,.08,0,.08,0Z"/><path class="b" d="M443.11,408.13l.12-.88.54.28c-.27.15-.54.31-.81.46,0,0,.14.14.14.14Z"/><path class="b" d="M447.91,434.45c-.21.09-.41.22-.63.26-.08.01-.2-.18-.3-.27.21-.09.41-.22.63-.26.08-.01.2.18.31.28Z"/><path class="b" d="M449.63,433.3c0,.1.04.23-.01.28-.07.08-.23.17-.31.14-.43-.18-.42-.4.01-.56.08-.03.21.09.31.14Z"/><path class="b" d="M447.88,418.27c-.32-.18-.64-.36-.05-.03-.51-.42-.24-.19.04.03,0,0,.01,0,.01,0Z"/><path class="b" d="M350,513.98c-1.45-.02-2.44.67-3.01,1.98-2.06-.12-3.01,2.48-5.16,2.21-.89-1.3.04-1.9.88-2.31,2.97-1.44,5.64-3.23,8.02-5.58.96-.95,2.98-3.21,3.27.69-1.81.36-3.25,1.22-4,3Z"/><path class="b" d="M310.82,495.79c.66-1.87,2.34-2.1,4.14-2.19-1.25.86-2.49,1.72-3.74,2.58-.14-.13-.27-.26-.4-.4Z"/><path class="b" d="M337.07,519.65c1.27-.58,2.53-1.16,3.8-1.74-.84,1.58-1.7,3.14-3.8,1.73h0Z"/><path class="b" d="M373.03,488.83c-.03.7-.07,1.39-.1,2.09-.52,0-.68.26-.54.74v.11c-.05-1.04-.93-2.25.64-2.94Z"/><path class="b" d="M329.97,493.95c.19-.96.77-1.33,1.77-1.11.06,1.63-.71,1.71-1.91,1.03l.14.09Z"/><path class="b" d="M326.07,527c-.49-.36-.37-.72.1-.93.18-.08.48.11.72.18-.32.22-.63.44-.95.66,0,0,.14.09.14.09Z"/><path class="b" d="M329.83,493.86c.98.75.21,1.16-.32,1.61-.21-.19-.41-.39-.61-.59.03-.69.47-.9,1.07-.93,0,0-.14-.09-.14-.09Z"/><path class="b" d="M337.07,519.63c.31.17.63.35-.04-.02.62.46.33.25.05.04,0,0,0-.01,0-.01Z"/><path class="b" d="M329.92,527.9c.24-.31.67-.9.7-.88.82.53.21.96-.15,1.41-.18-.18-.36-.36-.55-.54Z"/><path class="b" d="M328.96,528.93c-.03-.68.31-1,.97-1.03.19.17.37.35.55.54-.41.33-.82.67-1.23,1.01-.08-.17-.18-.35-.29-.52Z"/><path class="b" d="M309.48,496.4c.45-.2.89-.41,1.34-.61.13.14.26.27.4.4-.04.63-.39.95-1,1.01-.25-.27-.49-.53-.74-.8Z"/><path class="b" d="M372.39,491.66c-.4-.1-.8-.2-1.2-.29.07-.15.13-.3.2-.44.33.27.66.54,1,.83,0,.02,0-.09,0-.09Z"/><path class="b" d="M322.56,491.53c-.16-.28-.31-.56-.47-.84.49-.19.55-.07.23.4-.04.05.16.27.25.41,0,0-.01.03-.01.03Z"/><path class="b" d="M432.49,119.47c-10.92-8.44-22.66-4.14-34.22-2.12-5.8,1.01-11.35,3.82-17.4,2.64-1.56-1.74-.7-3.63-.89-5.44,4.41,1.35,1.77-3.94,4.04-4.24,1.78-1.24,1.64,1.8,3.4.99,10.95-5.08,22.53-2.33,33.78-1.96,5.09.16,9.32,4.56,11.9,9.51-.21.21-.41.42-.6.63Z"/><path class="b" d="M363.87,112.97v-2.85c2.15-.48,5.23,6.01,4.67,9.71-7.13,1.69-13.6-1.78-20.29-3.11-5.84-1.16-11.74-1.67-17.61-2.47-4.99-.68-9.01,2.8-13.5,4.7.42-4.16,7.44-10.03,12.33-10.14,8.32-.18,16.65-.1,24.97-.02,3.48.03,6.65,1.13,9.42,4.17Z"/><path class="b" d="M433.1,118.84c.25.29.78.75.72.85-.54.86-.91.11-1.32-.21.2-.22.4-.43.6-.63Z"/><path class="b" d="M315.97,119.52c-.2.1-.4.24-.62.28-.07.01-.19-.19-.29-.3.2-.1.4-.24.62-.28.07-.02.19.19.3.31Z"/><path class="b" d="M433.28,501.03c-.3,5.63-3.07,10.48-5.06,15.58.58-5.54,2.09-10.79,5.06-15.58Z"/><path class="b" d="M480.53,500.34c.17,1.79,2.44.47,2.87,2.11-2.19.97-2.23-1.01-2.86-2.11h0Z"/><path class="b" d="M478.38,503.49c.91.55,1.82,1.11,3.47,2.11-2.25.14-3.22-.48-4.01-1.54.18-.19.36-.38.54-.57Z"/><path class="b" d="M482.33,506.62c1.02-.16,1.85.06,2.54.86-1.35,1.17-1.71-.45-2.54-.86Z"/><path class="b" d="M474.82,498.48c-.47.49-.97.62-1.48.07-.05-.05-.05-.22,0-.27.57-.57,1.04-.25,1.48.2Z"/><path class="b" d="M480.54,500.34c-.68.18-1.36.35-2.04.53l-.1-.52c.71,0,1.42,0,2.13,0,0,0,0,0,0,0Z"/><path class="b" d="M472.5,500.3l1.89.98c-.16.23-.31.46-.48.69-.85.06-1.69.08-2.09-.9.22-.25.45-.51.67-.76Z"/><path class="b" d="M474.39,501.28c.68.36,1.36.71,2.04,1.07-.19.23-.38.45-.58.68-.82-.04-1.67-.01-1.94-1.06.16-.23.32-.45.48-.69Z"/><path class="b" d="M473.03,503.81c-.98.34-1.78.31-2.05-.93l-.12.11c.99-.35,1.76-.22,2.07.93,0,0,.09-.11.09-.11Z"/><path class="b" d="M477.83,504.06c-.85.02-1.74.13-1.98-1.03.19-.23.38-.45.58-.68.65.38,1.29.76,1.94,1.14-.18.19-.36.38-.54.56Z"/><path class="b" d="M475.78,504.46c-.67-1.27-2.4,1.96-2.76-.65,0,0-.09.11-.09.11,1.01-.26,1.66,1.42,2.79.53l.06.02Z"/><path class="b" d="M506.76,504.12c-.18-.2-.36-.4-.54-.6.19-.14.38-.28.58-.43.06.26.13.53.19.79,0,0-.23.24-.23.24Z"/><path class="b" d="M487.28,504.21c.11,0,.23,0,.34,0-.06.21-.13.41-.19.62-.11-.11-.26-.2-.32-.33-.03-.06.1-.2.16-.3Z"/><path class="b" d="M475.72,504.45c.06.51.13,1.01.19,1.52l.12-.09c-.36-.16-.95.45-1.11-.46-.14-.81.55-.66.85-.96.01,0-.05-.01-.05-.01Z"/><path class="b" d="M475.91,505.97c.72-.06,1.11.22,1,.99l.12-.09c-.41-.05-.83-.1-1.24-.14.08-.28.16-.57.23-.85,0,0-.12.09-.12.09Z"/><path class="b" d="M476.91,506.96c.29.25.58.49.87.74-.15.06-.34.2-.46.16-.56-.17-.67-.52-.29-.99,0,0-.12.09-.12.09Z"/><path class="b" d="M476.69,499.25c0,.1.03.24-.02.3-.08.08-.25.17-.33.14-.45-.2-.44-.43.03-.59.08-.03.21.1.32.16Z"/><path class="b" d="M460.11,540.77c.49.17.83.53.48.96-.14.17-.76-.05-1.16-.09.23-.29.45-.58.68-.87Z"/><path class="b" d="M470.98,502.88c-.74.38-1.1-.01-1.34-.65.18-.17.35-.34.52-.52.89.06,1.27.41.7,1.27,0,0,.12-.11.12-.11Z"/><path class="b" d="M259.1,229.26c-.75,5.18-1.5,10.35-2.25,15.53-1.06-5.41-.1-10.57,2.25-15.53Z"/><path class="b" d="M329.16,232.59c2.43,9.54.98,19.36,2.5,28.94-2.05-9.55-1.76-19.31-2.5-28.94Z"/><path class="b" d="M350.32,296.77v-10.12c.6,2.89.95,5.79,0,10.12Z"/><path class="b" d="M344.19,289.44c1.91-1.42-.69-2.89.13-4.26,1.64,1.35-1.81,2.81-.02,4.21,0,0-.11.05-.11.05Z"/><path class="b" d="M323.92,126.95c1.66-2.27,4.11-2.8,6.92-2.62-2.17,1.07-4.34,2.15-6.51,3.22-.13-.2-.27-.4-.41-.6Z"/><path class="b" d="M355.44,140.24c-1.01,2.48-1.8,3.46-3.46,3.75.08-2,1.59-2.2,3.46-3.75Z"/><path class="b" d="M348.18,145.78c.83-1.05,1.45-1.84,2.67-1.74.04,1.91-1.27,1.6-2.67,1.74Z"/><path class="b" d="M321.16,130.35c-.29.03-.58.06-.87.09.14-.18.27-.37.41-.55.17.2.33.39.51.61,0,.02-.04-.14-.04-.14Z"/><path class="b" d="M397.57,127.6c.33-.32.66-.64.99-.96.6-.4,1.2-.8,1.8-1.2.54-.18,1.09-.36,1.63-.54.97.74-.19,1.29-.17,1.94-.46.2-.93.4-1.39.6-.39.49-1.52.45-1.03,1.92.61-.49,1.11-.9,1.62-1.31.48-.14.96-.28,1.44-.42,6.19-3.8,12.23-3.23,18.41.22,1.71.96,3.58,2.24,5.85,1.85.01.01-.12-.14-.12-.14,3.5,4.28,3.39,5.46-1.68,7.18-10.6,3.6-21.32,3.52-31.95.25-.97-3.89,5.02-4.55,3.62-8.47.33-.31.65-.62.98-.93ZM417.04,136.08c1.86-.07,3.77-.01,5.33-1.82-1.42-1.05-2.64-1.96-4.02-2.98-.75,1.54-1.36,2.82-1.98,4.09l-.84,1.14c.62.26,1.24.5,1.52-.44ZM403.44,137.62c.39.02,1.03.2,1.13.04.33-.53-.2-.62-.58-.72-1.32-1.48-.26-3.93-2.11-5.33-1.75.8-3.75,1.09-4.88,3.1,1.46,2.59,4.34,1.94,6.45,2.91Z"/><path class="b" d="M394.51,140.95c2.1,1.43,4.2,2.86,7.21,4.91-3.93-.5-5.96-2.05-7.21-4.91Z"/><path class="b" d="M421.39,125.62c-1-.63-2.59-.2-3.32-1.98,1.6.07,2.96-.02,3.91,1.33-.22.2-.42.41-.58.66Z"/><path class="b" d="M423.43,125.26c.58.52,1.58.68,1.48,1.77,0,0,.11-.1.11-.1-1,.51-1.75.21-2.3-.72.23-.31.47-.63.7-.94Z"/><path class="b" d="M427.48,128.42c.37.46,1.14,1.21,1.05,1.34-.64.92-1.29.2-1.92-.19,0,0,.12.14.11.13.13-.21.19-.43.18-.67.2-.19.4-.4.58-.61Z"/><polygon class="b" points="402.37 146.3 402.5 146.55 402.2 146.53 402.37 146.3"/><path class="b" d="M426.9,129.03c-.62-.02-1.01-.29-1.05-.95.22-.21.42-.44.6-.68.34.34.68.68,1.02,1.02-.18.21-.38.42-.58.61Z"/><path class="b" d="M425.85,128.08c-.58-.16-1.34-.2-.82-1.15,0,0-.11.1-.11.1.51.13,1.03.25,1.54.38-.18.24-.39.47-.6.68Z"/><path class="b" d="M421.97,124.96c.49.1.97.2,1.46.3-.23.31-.47.63-.7.94-.45-.2-.89-.39-1.34-.59.17-.24.36-.46.58-.65Z"/><path class="b" d="M404.79,264.4c2.24-4.14,4.77-8.16,4.37-13.28,1.4,4.55-.97,8.51-1.1,12.74,0,0,.14-.15.15-.15-.68.49-1.36.98-2.04,1.47l-1.39-.78Z"/><path class="b" d="M400.37,271.36c.77-1.67,1.32-3.53,3.74-4.25.55,2.69-1.18,3.98-2.49,5.45-.42-.4-.83-.8-1.25-1.2Z"/><path class="b" d="M406.24,271.3c.03,1.28-.85,1.99-1.88,3.08-.52-1.91.5-2.69,1.55-3.46.12.12.23.24.33.38Z"/><path class="b" d="M403.67,259.14c.75.31,1.19-.02,1.59-1.11.4,1.45-.14,2.13-.95,2.73-.17-.6-.32-1.17-.49-1.74,0,0-.15.12-.15.12Z"/><path class="b" d="M406.18,265.18c-.12,1.19-.43,2.22-1.99,2.31-1.12-1.26-.44-2.21.61-3.09.46.26.92.52,1.39.78Z"/><path class="b" d="M405.9,270.92c-.12-.89-.25-1.79,1-2,.13.14.27.28.4.43-.04.82-.18,1.59-1.07,1.95-.1-.13-.21-.26-.33-.37Z"/><path class="b" d="M412.28,247.45c-1.14-.3-.88-1-.43-1.67.11-.16.5-.14.76-.2.03.56.07,1.11.1,1.67,0,0,.13-.15.12-.14s-.41-.24-.41-.24l-.24.41.09.16Z"/><path class="b" d="M406.91,268.92c.2-.34.4-.68.59-1.02.12.1.36.25.34.3-.15.39-.35.77-.54,1.15-.13-.14-.26-.28-.4-.43Z"/><path class="b" d="M412.19,247.29c-.36.18-.72.36-1.08.54.05-.27.01-.65.18-.8.51-.47.74.05.99.41,0,.02-.09-.14-.09-.14Z"/><path class="b" d="M97.08,585.04c-.27-2.68.85-4.15,1.47-5.92.69,2.2.18,3.98-1.47,5.92Z"/><path class="b" d="M385.75,526.75c.07-1.13.08-2.3,1.58-2.7,1.17,1.46.73,2.54-.77,3.41-.27-.24-.54-.47-.81-.71Z"/><path class="b" d="M399.86,37.94c1.83-.19,3.26.41,4.17,2.07-2.23,1-3.02-.89-4.17-2.07Z"/><path class="b" d="M336.02,46.08c-.48-2.09,1.44-1.94,2.45-2.64.23.26.45.52.68.78-.78,1.12-1.78,1.84-3.22,1.74l.09.11Z"/><path class="b" d="M393.85,34.99c1.59-1.25,2.26.32,3.21,1.04-1.28.31-2.39.05-3.21-1.04Z"/><path class="b" d="M396.87,35.92c.9,0,1.69.24,2.18,1.08-1.38.94-1.94.26-2.18-1.08Z"/><path class="b" d="M338.48,43.45c.51-.36,1.02-.72,1.52-1.09.47.38.94.76,1.42,1.14-.75.24-1.5.49-2.26.73-.23-.26-.45-.52-.68-.78Z"/><path class="b" d="M398.91,36.91c.61.16,1.4.14,1.11,1.16-.67-.1-1.75.18-1.11-1.16Z"/><path class="b" d="M335.94,45.97c-.24.24-.48.48-.71.72-.06-.14-.2-.32-.16-.41.21-.5.56-.53.96-.2,0,0-.09-.11-.09-.11Z"/><path class="b" d="M403.9,39.91c.66.1,1.56-.04,1.1,1.14-.96.19-1.86.33-1.1-1.14Z"/><path class="b" d="M349.09,24.18c3.79-3.16,8.25-3.47,12.99-2.58-4.36.82-8.71,1.64-13.07,2.46,0,0,.08.11.08.11Z"/><path class="b" d="M331,34.04c-.7,0-1.4.01-2.11.02-.35-1.55.8-2.07,1.82-1.91,1.13.17.11,1.25.28,1.89Z"/><path class="b" d="M354.06,25.96c-1.29.79-2.54,1.74-4.21,1.05,1.1-1.55,2.78-.78,4.21-1.05Z"/><path class="b" d="M346.25,25.41c.1-2.35,1.5-1.71,2.84-1.23,0,0-.08-.11-.08-.11-.53,1.4-1.9.8-2.86,1.2l.1.14Z"/><path class="b" d="M357.02,24.94c-.62,1.56-2.1.71-3.13,1.12.5-1.9,2.18-.47,3.13-1.12Z"/><path class="b" d="M340.98,27.03c.91-1.41,1.99-1.93,3.4-.66-.01,0-.16-.14-.16-.14-1.04.55-2,1.47-3.32.71l.08.08Z"/><path class="b" d="M346.15,25.27c-.65.31-1.3.63-1.94.96.01.01.16.14.17.15,0-.36-1.03-.48-.22-1.06.74-.53,1.41-.8,2.08.09,0,.01-.09-.13-.09-.13Z"/><path class="b" d="M340.9,26.94c-.07,1.5-.89,1.52-1.99,1l.08.1c.06-1.52,1.11-1.1,1.99-1.02,0,0-.08-.08-.08-.08Z"/><path class="b" d="M350.02,26.92c-.01,1.68-1.39.83-2.14,1.15.08-1.55,1.37-.86,2.14-1.15Z"/><path class="b" d="M338.92,27.94c-.14,1.34-1.12.97-2.5,1.84.86-2.1,1.69-1.98,2.58-1.74,0,0-.08-.1-.08-.1Z"/><path class="b" d="M332.98,31.02c.17-.98.93-1.06,1.81-1.12-.22,1.21-.64,1.88-1.92,1.03l.12.1Z"/><path class="b" d="M329.03,33.94c-.01.37-.02.74-.03,1.11-.71,0-1.42.01-2.13.02.18-1.41,1.06-1.47,2.16-1.13Z"/><path class="b" d="M332.87,30.93c.23.38.38.79-.2.95-.19.05-.45-.19-.68-.3.33-.18.66-.37,1-.55,0,0-.12-.1-.12-.1Z"/><path class="b" d="M404.92,22.03c.34.16.69.32,1.03.48-.2.15-.4.3-.59.44-.11-.34-.23-.68-.34-1.03,0,0-.09.11-.09.11Z"/><path class="b" d="M405.01,21.93c-.39-.08-.78-.17-1.17-.25.15-.22.29-.44.44-.65.21.34.42.68.64,1.01,0,0,.09-.11.09-.11Z"/><path class="b" d="M301.2,165.86c1.2.38,1.59,1.05,1.61,2.19-1.63-.24-1.93-.95-1.61-2.19Z"/><path class="b" d="M300.12,162.83c.17.31.34.62.51.93-.39-.04-.78-.09-1.17-.13.22-.26.44-.53.66-.8Z"/><path class="b" d="M624.68,617.52c8.82-1.53,17.34-.12,25.59,3.48-8.56-.74-16.88-3.61-25.59-3.48Z"/><path class="b" d="M654.2,628.2c-.32.14-.64.28-.96.42-.02-.4-.04-.79-.06-1.19.34.26.68.51,1.02.77Z"/><path class="b" d="M374.89,43.98c6.3-1.22,11.87.69,17.09,4.03-.52,1.53-1.57.68-2.37.45-4.92-1.46-9.82-2.98-14.72-4.48Z"/><path class="b" d="M297.62,81.44c1.8-1.22.92.55.89,1.21-.26-.46-.51-.93-.78-1.38-.01.01-.11.17-.11.17Z"/><path class="b" d="M449.87,56.94c1.39-.64,1.4.11,1.13,1.13-.76,0-1.32-.18-1.13-1.13Z"/><path class="b" d="M173.92,466.84c1.93,1.4.74,3.47,1.13,5.21-2.02-1.38-.65-3.49-1.13-5.21Z"/><path class="b" d="M174.93,471.84c1.76.58.46,2.22,1.11,3.18-1.13-.79-1.43-1.88-1.11-3.18Z"/><path class="b" d="M559.95,663.03c-1.74-1.46.02-3.62-1.06-5.21.54,1.7,1.88,3.23,1.06,5.21Z"/><path class="b" d="M565.88,659.95c.32-2.43,2-.93,3.11-1.08-.4,2.18-1.79,1.55-3.11,1.08Z"/><path class="b" d="M605.85,633.98c-.05-.81.32-1.2,1.14-1.14.32,1.08-.12,1.4-1.14,1.14Z"/><path class="b" d="M579.93,653.93c-1.42-.52-1.25-1.42-.67-2.59,1.64.76.59,1.82.54,2.7,0,0,.13-.11.13-.11Z"/><path class="b" d="M179.96,503.84c.26.25.55.33.9.22.06.65.12,1.3.17,1.95-.81-.5-1.86-.88-1.07-2.16Z"/><path class="b" d="M339.88,82.01c.28-1.23.85-1.88,2.15-1.05-.22,1.36-.81,1.96-2.15,1.05Z"/></svg>